<svg xmlns="http://www.w3.org/2000/svg" viewBox="0 0 37.891 37.892">
  <defs>
    <style>
      .cls-1, .cls-4 {
        fill: none;
      }

      .cls-1 {
        stroke: #fff;
      }

      .cls-2 {
        fill: #fff;
      }

      .cls-3 {
        stroke: none;
      }
    </style>
  </defs>
  <g id="Group_360" data-name="Group 360" transform="translate(-1407 -12547)">
    <g id="Ellipse_12" data-name="Ellipse 12" class="cls-1" transform="translate(1407 12547)">
      <circle class="cls-3" cx="18.946" cy="18.946" r="18.946"/>
      <circle class="cls-4" cx="18.946" cy="18.946" r="18.446"/>
    </g>
    <g id="noun_Email_1217270" transform="translate(1318 12464)">
      <g id="Group_148" data-name="Group 148" transform="translate(97.6 91)">
        <path id="Path_8" data-name="Path 8" class="cls-2" d="M111.744,96.147h1.792l-2.3,7.965a3.423,3.423,0,0,0-.146.861c0,.481.2.715.6.715a3.119,3.119,0,0,0,.627-.089,3.2,3.2,0,0,0,.861-.342,5.26,5.26,0,0,0,.95-.671,4.205,4.205,0,0,0,.867-1.083,6.65,6.65,0,0,0,.639-1.6,8.659,8.659,0,0,0,.253-2.21,6.507,6.507,0,0,0-.62-2.836,6.953,6.953,0,0,0-1.659-2.216,7.865,7.865,0,0,0-2.387-1.443,7.671,7.671,0,0,0-2.8-.519,9.031,9.031,0,0,0-3.545.69,8.788,8.788,0,0,0-2.855,1.918,8.983,8.983,0,0,0-1.912,2.919,9.472,9.472,0,0,0-.7,3.678,8.041,8.041,0,0,0,.715,3.419,8.235,8.235,0,0,0,1.918,2.621,8.717,8.717,0,0,0,2.748,1.678,8.935,8.935,0,0,0,3.21.6,8.283,8.283,0,0,0,3.976-.918,7.661,7.661,0,0,0,2.754-2.437h1.792a6.727,6.727,0,0,1-1.418,2.241,8.158,8.158,0,0,1-2.115,1.576,10.375,10.375,0,0,1-2.6.931,13.254,13.254,0,0,1-2.843.3,9.682,9.682,0,0,1-2.513-.329,10.214,10.214,0,0,1-2.343-.95,10.378,10.378,0,0,1-2.039-1.5,9.958,9.958,0,0,1-1.614-1.982,9.4,9.4,0,0,1-1.057-2.412,9.856,9.856,0,0,1-.38-2.76,11.324,11.324,0,0,1,.88-4.558,10.707,10.707,0,0,1,2.362-3.457,10.349,10.349,0,0,1,3.444-2.191,11.428,11.428,0,0,1,4.153-.76,9.57,9.57,0,0,1,3.425.627,9.368,9.368,0,0,1,2.931,1.766,8.629,8.629,0,0,1,2.045,2.71,7.818,7.818,0,0,1,.76,3.457,9.138,9.138,0,0,1-.576,3.381,7.332,7.332,0,0,1-1.532,2.456,6.511,6.511,0,0,1-2.178,1.507,6.421,6.421,0,0,1-2.513.513,1.57,1.57,0,0,1-1.222-.494,1.889,1.889,0,0,1-.5-1.159,3.961,3.961,0,0,1-1.38,1.266,3.856,3.856,0,0,1-1.792.386,3.712,3.712,0,0,1-1.678-.367,4.116,4.116,0,0,1-1.273-.969,4.284,4.284,0,0,1-.81-1.374,4.6,4.6,0,0,1-.279-1.564,8.1,8.1,0,0,1,.45-2.608,8.2,8.2,0,0,1,1.273-2.393,6.883,6.883,0,0,1,1.963-1.747,4.859,4.859,0,0,1,2.52-.671,2.853,2.853,0,0,1,1.19.234,3.549,3.549,0,0,1,.905.563,3.662,3.662,0,0,1,.62.69,2.691,2.691,0,0,1,.329.608Zm-1.969,6.6c.158-.513.279-.931.38-1.254s.165-.589.209-.791a4.726,4.726,0,0,0,.082-.475,2.663,2.663,0,0,0,.019-.279,2.838,2.838,0,0,0-.177-1.026,2.34,2.34,0,0,0-.5-.8,2.255,2.255,0,0,0-1.652-.69,2.742,2.742,0,0,0-1.576.532,5.984,5.984,0,0,0-1.38,1.336,7.532,7.532,0,0,0-.988,1.766,4.913,4.913,0,0,0-.38,1.8,4.385,4.385,0,0,0,.127,1.032,2.706,2.706,0,0,0,.405.924,2.182,2.182,0,0,0,.728.671,2.133,2.133,0,0,0,1.076.26,3.283,3.283,0,0,0,1.114-.2,3.519,3.519,0,0,0,1.038-.582,4.32,4.32,0,0,0,.867-.95A5.611,5.611,0,0,0,109.775,102.744Z" transform="translate(-97.6 -91)"/>
      </g>
    </g>
  </g>
</svg>
