<svg xmlns="http://www.w3.org/2000/svg" viewBox="0 0 20 20">
  <defs>
    <style>
      .cls-1 {
        fill: #fff;
      }
    </style>
  </defs>
  <path id="if_facebook_112689" class="cls-1" d="M18.858,0H1.142A1.147,1.147,0,0,0,0,1.142V18.858A1.147,1.147,0,0,0,1.142,20H18.858A1.147,1.147,0,0,0,20,18.858V1.142A1.147,1.147,0,0,0,18.858,0ZM16.976,11.218H14.228v7.354h-2.8V11.218H9.484V8.572h1.944V6.311c0-1.778,1.148-3.409,3.794-3.409a15.9,15.9,0,0,1,1.863.1l-.062,2.471s-.808-.008-1.689-.008c-.954,0-1.107.439-1.107,1.169V8.572H17.1Z"/>
</svg>
