<svg xmlns="http://www.w3.org/2000/svg" viewBox="2593 6011 144 196"><defs><style>.a,.b{fill:#0051c0;}.a{font-size:25px;font-family:Lato-Regular, Lato;}.c,.e{fill:none;}.c{stroke:#0051c0;}.d{stroke:none;}</style></defs><g transform="translate(2085 8)"><text class="a" transform="translate(525 6194)"><tspan x="0" y="0">Education</tspan></text><g transform="translate(0 33)"><g transform="translate(324.031 5781.564)"><g transform="translate(210.969 215.436)"><path class="b" d="M274.484,254.6a1.026,1.026,0,0,0-.968,1.074V257.9c-.261,2.97-5.139,8.7-7,10.66a.549.549,0,0,0-.041.045l-2.636,3.121a3.97,3.97,0,0,0-.691-.061l-23.974.151a4.237,4.237,0,0,0-.476.033,6.445,6.445,0,0,1-1.611-4.287l.159-9.677.082-15.819v-.084l.006-.713v-.008l.048-2.139a3.264,3.264,0,0,1,.864-2.183,2.484,2.484,0,0,1,1.882-.811,2.924,2.924,0,0,1,2.613,3.15v2.666h0v.122a1.025,1.025,0,0,0,.967,1.073h0a1.025,1.025,0,0,0,.967-1.075v-.113l.007-.809v-.008l.05-2.18a3.3,3.3,0,0,1,.882-2.205,2.663,2.663,0,0,1,2.026-.868,2.706,2.706,0,0,1,1.987.98,3.336,3.336,0,0,1,.78,2.251v2.831h0v.012c0,.032,0,.062.008.094a1.1,1.1,0,0,0,.011.115,1.083,1.083,0,0,0,.03.112c.008.03.014.06.024.089a1.086,1.086,0,0,0,.058.121c.011.02.019.042.03.061a1.119,1.119,0,0,0,.088.121c.01.012.018.027.028.039a1.188,1.188,0,0,0,.119.111c.008.006.015.014.023.021a.9.9,0,0,0,.147.091l.015.009a.964.964,0,0,0,.176.063h0a.888.888,0,0,0,.2.024h0a.969.969,0,0,0,.882-.639.108.108,0,0,0,0-.011,1,1,0,0,0,.045-.158c0-.016.009-.029.012-.044a1.31,1.31,0,0,0,.014-.141c0-.024.007-.048.007-.072v-.031l.007-.793v-.008l.05-2.18a3.3,3.3,0,0,1,.882-2.205,2.663,2.663,0,0,1,2.027-.868,3.032,3.032,0,0,1,2.768,3.23.236.236,0,0,0,0,.027v2.816c0,.01,0,.02,0,.03a1.38,1.38,0,0,0,.017.184c0,.018.011.033.015.05a.94.94,0,0,0,.042.15.686.686,0,0,0,.032.068.906.906,0,0,0,.055.114.816.816,0,0,0,.057.077c.02.028.038.057.06.082s.055.051.083.077.039.039.06.054a.952.952,0,0,0,.11.068c.018.01.034.023.053.032a.847.847,0,0,0,.14.049c.014,0,.025.011.04.014a.932.932,0,0,0,.168.021c.008,0,.017,0,.024,0h.012a1,1,0,0,0,.944-.846v0a1.064,1.064,0,0,0,.02-.187c0-.009,0-.018,0-.027h0s0-.006,0-.008v-.064l.008-.748v-.009l.05-2.18a3.308,3.308,0,0,1,.882-2.205,2.668,2.668,0,0,1,2.027-.868,2.7,2.7,0,0,1,1.986.98,3.331,3.331,0,0,1,.78,2.251v2.842l-.019,20.221a1.026,1.026,0,0,0,.966,1.076h0a1.025,1.025,0,0,0,.968-1.073l.019-20.223h0v-2.8a5.606,5.606,0,0,0-1.312-3.771,4.542,4.542,0,0,0-3.339-1.647,4.489,4.489,0,0,0-3.41,1.458,5.345,5.345,0,0,0-.548.689,4.645,4.645,0,0,0-3.713-2.147,4.489,4.489,0,0,0-3.409,1.458,5.078,5.078,0,0,0-.546.687,5.116,5.116,0,0,0-.376-.5,4.541,4.541,0,0,0-3.34-1.646,4.5,4.5,0,0,0-3.409,1.458,5.241,5.241,0,0,0-.6.771,4.452,4.452,0,0,0-3.5-1.984,4.3,4.3,0,0,0-3.266,1.4,5.508,5.508,0,0,0-1.465,3.685l-.049,2.151v.029l-.006.707h0v.1l-.082,15.8-.158,9.656a8.76,8.76,0,0,0,1.595,5.124,4.625,4.625,0,0,0-.684.628,5.147,5.147,0,0,0-1.273,3.468,4.816,4.816,0,0,0,3.46,4.75v20.876a1.025,1.025,0,0,0,.967,1.074h23.668a1.024,1.024,0,0,0,.966-1.074V281.385a4.779,4.779,0,0,0,3.7-4.858,5.08,5.08,0,0,0-1.81-3.918l2.123-2.515c.838-.885,7.267-7.8,7.585-12.062,0-.029,0-.059,0-.088v-2.275A1.015,1.015,0,0,0,274.484,254.6Zm-12.569,46.692H240.181V281.6l21.734-.136Zm1.241-21.988-23.947.152h-.015a2.625,2.625,0,0,1-2.473-2.731,2.893,2.893,0,0,1,.713-1.945,2.346,2.346,0,0,1,1.746-.815l23.963-.151a2.761,2.761,0,0,1,.013,5.49Z" transform="translate(-210.989 -213.435)"/><path class="b" d="M301.015,243.033a1.024,1.024,0,0,0-.967-1.074h-2.93a3.222,3.222,0,0,0-.563-.906,2.28,2.28,0,0,0-1.692-.8,2.557,2.557,0,0,0-2.254,1.71H269.721a1.08,1.08,0,0,0,0,2.148H292.3v6.772H269.709a1.08,1.08,0,0,0,0,2.148h22.9a3.322,3.322,0,0,0,.377.676,2.358,2.358,0,0,0,1.878,1.036h0a2.553,2.553,0,0,0,2.253-1.711h2.93a.923.923,0,0,0,.684-.314,1.137,1.137,0,0,0,.284-.76Zm-5.522,8.451a1.609,1.609,0,0,1-.016.233c0,.011,0,.022-.006.032-.076.494-.353.84-.6.84v1.074l0-1.074a.522.522,0,0,1-.377-.242,1.49,1.49,0,0,1-.251-.863V243.5c0-.632.332-1.1.627-1.1a.459.459,0,0,1,.324.173,1.272,1.272,0,0,1,.28.635c0,.021,0,.042.008.062a1.61,1.61,0,0,1,.017.232v7.985Zm1.934-.606v-6.772h1.654v6.772Z" transform="translate(-211.017 -212.722)"/><path class="b" d="M233.34,241.79H218.295a.745.745,0,0,0-.087.01.7.7,0,0,0-.084.009.954.954,0,0,0-.116.034c-.022.008-.044.013-.065.022a.95.95,0,0,0-.126.07c-.012.008-.025.012-.038.021l-.019.013-.009.006-6.334,4.441-.016.013a1.09,1.09,0,0,0-.084.073c-.023.021-.046.04-.067.063s-.038.048-.056.072-.047.062-.067.094c0,.007-.009.011-.012.018s-.018.042-.028.062c-.017.036-.034.07-.048.107s-.02.065-.029.1-.018.067-.024.1-.009.07-.012.1-.006.068-.006.1,0,.068.006.1.006.07.012.105.015.067.024.1.017.067.029.1.031.07.047.105.017.043.029.063l.016.023.025.039a.914.914,0,0,0,.095.123c.006.007.011.014.017.02a.845.845,0,0,0,.137.119l.012.011,6.361,4.461a1.054,1.054,0,0,0,.135.078.072.072,0,0,1,.021.009.922.922,0,0,0,.147.05l.036.009a.875.875,0,0,0,.177.021h14.992a1.08,1.08,0,0,0,0-2.148H219.262v-6.772H233.34a1.08,1.08,0,0,0,0-2.149Zm-16.013,8.045-3.582-2.512,3.582-2.51Z" transform="translate(-210.969 -212.554)"/><path class="b" d="M233.322,245.619H221.671a1.08,1.08,0,0,0,0,2.148h11.651a1.08,1.08,0,0,0,0-2.148Z" transform="translate(-210.977 -212.135)"/><path class="b" d="M269.716,247.766h20.535a1.08,1.08,0,0,0,0-2.148H269.716a1.08,1.08,0,0,0,0,2.148Z" transform="translate(-211.017 -212.135)"/><path class="b" d="M251.391,222.79a1.025,1.025,0,0,0,.967-1.074V216.51a.972.972,0,1,0-1.934,0v5.206A1.025,1.025,0,0,0,251.391,222.79Z" transform="translate(-211.002 -215.436)"/><path class="b" d="M238.3,225.466a.951.951,0,0,0,.838.537.89.89,0,0,0,.483-.144,1.142,1.142,0,0,0,.354-1.468l-2.345-4.508a.916.916,0,0,0-1.321-.393,1.139,1.139,0,0,0-.354,1.467Z" transform="translate(-210.99 -215.008)"/><path class="b" d="M225.624,232.037l4.062,2.6a.892.892,0,0,0,.483.144.953.953,0,0,0,.838-.537,1.142,1.142,0,0,0-.354-1.468l-4.061-2.6a.917.917,0,0,0-1.321.394A1.139,1.139,0,0,0,225.624,232.037Z" transform="translate(-210.981 -213.84)"/><path class="b" d="M272.609,234.784a.887.887,0,0,0,.483-.144l4.062-2.6a1.139,1.139,0,0,0,.354-1.467.916.916,0,0,0-1.321-.394l-4.061,2.6a1.138,1.138,0,0,0-.354,1.467A.951.951,0,0,0,272.609,234.784Z" transform="translate(-211.02 -213.84)"/><path class="b" d="M263.157,225.86a.889.889,0,0,0,.483.143.955.955,0,0,0,.839-.537l2.346-4.508a1.141,1.141,0,0,0-.355-1.467.915.915,0,0,0-1.32.393l-2.346,4.508A1.142,1.142,0,0,0,263.157,225.86Z" transform="translate(-211.012 -215.008)"/></g></g><g class="c" transform="translate(508 5970)"><circle class="d" cx="72" cy="72" r="72"/><circle class="e" cx="72" cy="72" r="71.5"/></g></g></g></svg>