<?xml version="1.0" encoding="utf-8"?>
<!-- Generator: Adobe Illustrator 21.0.2, SVG Export Plug-In . SVG Version: 6.00 Build 0)  -->
<svg version="1.1" id="Layer_1" xmlns="http://www.w3.org/2000/svg" xmlns:xlink="http://www.w3.org/1999/xlink" x="0px" y="0px"
	 viewBox="0 0 64 64" style="enable-background:new 0 0 64 64;" xml:space="preserve">
<style type="text/css">
	.st0{opacity:0.2;}
	.st1{fill:#231F20;}
	.st2{fill:#2D3567;stroke:#FFFFFF;stroke-width:3;stroke-linecap:round;stroke-linejoin:round;stroke-miterlimit:10;}
</style>
<g class="st0">
	<polygon class="st1" points="32,2.5 17.6,34.8 32,27.6 46.4,34.8 	"/>
	<path class="st1" d="M46.4,36.2c-0.2,0-0.4,0-0.6-0.1L32,29.1L18.2,36c-0.5,0.3-1.1,0.2-1.5-0.2c-0.4-0.4-0.5-1-0.3-1.5L30.8,2
		C31,1.5,31.5,1.2,32,1.2c0.5,0,1,0.3,1.2,0.8l14.4,32.3c0.2,0.5,0.1,1.1-0.3,1.5C47,36,46.7,36.2,46.4,36.2z M32,26.3
		c0.2,0,0.4,0,0.6,0.1l11,5.5L32,5.8L20.4,31.9l11-5.5C31.6,26.3,31.8,26.3,32,26.3z"/>
</g>
<polygon class="st2" points="32,0.7 17.9,32.3 32,25.3 46.1,32.3 "/>
</svg>
