<svg xmlns="http://www.w3.org/2000/svg" viewBox="2272 6011 144 196"><defs><style>.a,.c{fill:#0051c0;}.a{font-size:25px;font-family:Lato-Regular, Lato;}.b{fill:#0c59c3;}.d,.f{fill:none;}.d{stroke:#0c59c3;}.e{stroke:none;}</style></defs><g transform="translate(2085 8)"><text class="a" transform="translate(222 6194)"><tspan x="0" y="0">Health</tspan></text><g transform="translate(0 33)"><g transform="translate(212 5994.8)"><g transform="translate(2 2.2)"><g transform="translate(0 59.352)"><path class="b" d="M47.817,64.239h-.939C33.734,63.1,27.35,61.024,27.162,61.024A71.969,71.969,0,0,1,14.769,55.73L2,55.352V37.768l11.642.189A31.988,31.988,0,0,1,28.1,33.608c4.319-.189,9.013,1.134,17.651,3.592,1.314.378,5.07,1.324,12.956,3.971,4.882,1.513,9.764,3.214,14.459,4.916l1.5.567-.376,1.7a12.1,12.1,0,0,1-2.441,4.916,9.451,9.451,0,0,1-6.384,3.592,8.075,8.075,0,0,1-3-.189l-1.127-.189c-3.943,2.836-6.948,5.105-8.45,6.239-.188,0-.939.567-2.066.945A10.259,10.259,0,0,1,47.817,64.239ZM5.755,51.571l9.952.189.376.189a69.4,69.4,0,0,0,12.205,5.105s6.2,2.08,18.965,3.025a5.975,5.975,0,0,0,2.441-.189,2.628,2.628,0,0,0,1.314-.756c1.127-.756,3-2.08,5.445-3.971L35.8,51.571l.563-3.782h0L63.59,52.516a7,7,0,0,0,1.878.189,6.406,6.406,0,0,0,3.943-2.269c.376-.567.751-.945,1.127-1.513-4.131-1.513-8.262-2.836-12.581-4.16C50.07,42.117,46.315,41.171,45,40.793c-8.825-2.458-12.956-3.592-16.524-3.4a26.824,26.824,0,0,0-13.144,4.16l-.376.189-9.2-.189Z" transform="translate(-2 -33.591)"/></g><g transform="translate(55.581 57.006)"><path class="c" d="M47.185,50.6,45.12,47.382c12.581-8.7,15.585-10.21,16.712-10.588.188,0,.188-.189.376-.189-.376-.189-1.314-.189-1.878-.378a16.512,16.512,0,0,0-4.319,0,11.062,11.062,0,0,0-2.817.756c-6.572,2.458-10.515,3.971-11.642,4.538a81.689,81.689,0,0,0-7.887,4.349L31.6,42.655a70.289,70.289,0,0,1,8.262-4.538c1.314-.567,4.507-1.891,11.83-4.538a15.024,15.024,0,0,1,3.568-.945,14.128,14.128,0,0,1,5.633,0c1.69.378,4.131.756,4.882,2.836a3.769,3.769,0,0,1-.188,3.025,4.683,4.683,0,0,1-2.817,2.08C62.207,40.764,59.2,42.466,47.185,50.6Z" transform="translate(-31.6 -32.35)"/></g><g transform="translate(26.476)"><path class="c" d="M45.956,60.813a1.683,1.683,0,0,1-.939-.189C43.891,60.057,16.1,44.553,16.1,20.918A18.7,18.7,0,0,1,34.69,2.2,18.4,18.4,0,0,1,45.956,5.982,18.4,18.4,0,0,1,57.223,2.2a18.7,18.7,0,0,1,18.59,18.718c0,23.634-27.791,39.139-28.917,39.706A1.683,1.683,0,0,1,45.956,60.813ZM34.69,5.982A14.917,14.917,0,0,0,19.855,20.918c0,19.1,21.406,33.088,26.1,35.924,4.694-2.836,26.1-16.828,26.1-35.924A14.917,14.917,0,0,0,57.223,5.982a14.161,14.161,0,0,0-9.952,3.971,1.959,1.959,0,0,1-2.441,0A15.516,15.516,0,0,0,34.69,5.982Z" transform="translate(-16.1 -2.2)"/></g></g></g><g class="d" transform="translate(187 5970)"><circle class="e" cx="72" cy="72" r="72"/><circle class="f" cx="72" cy="72" r="71.5"/></g></g></g></svg>