<svg xmlns="http://www.w3.org/2000/svg" viewBox="2935 6011 144 196"><defs><style>.a,.b{fill:#0051c0;}.a{font-size:25px;font-family:Lato-Regular, Lato;}.c,.e{fill:none;}.c{stroke:#0051c0;}.d{stroke:none;}</style></defs><g transform="translate(2085 8)"><text class="a" transform="translate(890 6194)"><tspan x="0" y="0">Retail</tspan></text><g transform="translate(0 33)"><g transform="translate(867.204 5987)"><path class="b" d="M10.926,12.25h8.4l2.79,17.658h0l6.3,44.637s0,0,0,.008a.018.018,0,0,0,0,.008L30.1,85.432a1.128,1.128,0,0,0,1.116.953h5.641a7.429,7.429,0,1,0,8.021,0h34.2a7.429,7.429,0,1,0,8.02,0h7.112a1.125,1.125,0,1,0,0-2.25H32.189l-1.338-8.621H92.368a1.127,1.127,0,0,0,1.119-.969l6.3-44.657a1.126,1.126,0,0,0-1.119-1.281H24.2L21.411,10.949A1.129,1.129,0,0,0,20.294,10H10.926a1.125,1.125,0,1,0,0,2.25Zm29.947,85.5A5.147,5.147,0,1,1,46.042,92.6,5.165,5.165,0,0,1,40.873,97.75Zm42.219,0A5.147,5.147,0,1,1,88.261,92.6,5.165,5.165,0,0,1,83.092,97.75ZM93.633,57.327H78.949l1.306-12.446H95.389Zm-16.955,0H62.113V44.881H77.984Zm-48.093,2.25H43.44l1.8,13.688H30.516Zm17.134,0H59.853V73.264H47.514Zm16.394,0H76.442L75,73.264H62.113Zm0-16.946V30.859H79.456L78.22,42.632H62.113Zm-2.26,0H43.5L41.951,30.858h17.9Zm0,2.25V57.327H45.423L43.79,44.881ZM43.145,57.327H28.268L26.512,44.881h15ZM91.386,73.264H77.275l1.437-13.688h14.6Zm4.32-30.634H80.491l1.236-11.773h15.64ZM39.672,30.859l1.544,11.773H26.2L24.535,30.859Z"/></g><g class="c" transform="translate(850 5970)"><circle class="d" cx="72" cy="72" r="72"/><circle class="e" cx="72" cy="72" r="71.5"/></g></g></g></svg>