<?xml version="1.0" encoding="utf-8"?>
<!-- Generator: Adobe Illustrator 21.0.0, SVG Export Plug-In . SVG Version: 6.00 Build 0)  -->
<svg version="1.1" id="Layer_1" xmlns="http://www.w3.org/2000/svg" xmlns:xlink="http://www.w3.org/1999/xlink" x="0px" y="0px"
	 width="90px" height="90px" viewBox="0 0 90 90" style="enable-background:new 0 0 90 90;" xml:space="preserve">
<style type="text/css">
	.st0{fill:#FFFFFF;}
</style>
<g>
	<path class="st0" d="M24.9,2c-2.6,0-4.8,2.1-4.8,4.8v76.4c0,2.6,2.1,4.8,4.8,4.8H65c2.6,0,4.8-2.1,4.8-4.8V6.8
		C69.8,4.2,67.7,2,65,2H24.9z M24.9,3.9H65c1.6,0,2.9,1.3,2.9,2.9v4.8H22.1V6.8C22.1,5.2,23.3,3.9,24.9,3.9z M22.1,13.5H68v59.2
		H22.1V13.5z M22.1,74.6H68v8.6c0,1.6-1.3,2.9-2.9,2.9H24.9c-1.6,0-2.9-1.3-2.9-2.9v-8.6H22.1z M38.3,79.4c-0.5,0-1,0.4-1,1
		s0.4,1,1,1h13.4c0.5,0,1-0.4,1-1s-0.4-1-1-1H38.3z"/>
	<g>
		<path class="st0" d="M30.9,46c-0.6,0-1,0.1-1.4,0.4c-0.3-0.3-0.8-0.4-1.4-0.4s-1,0.1-1.4,0.3s-0.5,0.6-0.5,1.1v4.2h0.9v-4
			c0-0.1-0.1-0.8,0.9-0.8s1,0.6,1,0.7v4.1h1v-4c0-0.1,0-0.8,1-0.8s1,0.7,1,0.8v4h0.9v-4.2C32.9,46.5,32.2,46,30.9,46z"/>
		<path class="st0" d="M58.9,46.3C58.5,46.1,58,46,57.4,46s-1.1,0.1-1.4,0.3c-0.4,0.2-0.6,0.6-0.6,1.1v4.2h0.9v-4.1
			c0-0.1,0-0.7,1.1-0.7s1.1,0.6,1.1,0.7v4.1h0.9v-4.2C59.4,46.9,59.3,46.5,58.9,46.3z"/>
		<path class="st0" d="M41,39.2v3.9c0,0.1,0,0.9-1.1,0.9s-1.1-0.7-1.1-0.9v-3.9l0,0h-2.7V38h-0.9v1.2h-0.6V40h0.6v3.4l0,0v0.1
			c0,0.5,0.3,1,0.8,1.3l0.6-0.7c-0.2-0.1-0.4-0.3-0.5-0.5c0-0.1,0-0.4,0-0.5s0-3.1,0-3.1h1.8v3.3c0,0.5,0.2,0.9,0.6,1.1
			c0.4,0.2,0.8,0.3,1.4,0.3c0.6,0,1.1-0.1,1.4-0.3c0.4-0.2,0.6-0.6,0.6-1.1v-4.2H41V39.2z"/>
		<path class="st0" d="M46.3,50.5c0-0.1,0-0.4,0-0.5c0,0,0-2.6,0-4h-0.9v4.3l0,0v0.1c0,0.5,0.3,1,0.8,1.3l0.6-0.7
			C46.6,50.9,46.4,50.7,46.3,50.5z"/>
		<path class="st0" d="M54,50.5c0-0.1,0-0.4,0-0.5v-4h-0.9v4.3l0,0v0.1c0,0.5,0.3,1,0.7,1.3l0.6-0.7C54.2,50.9,54.1,50.7,54,50.5z"
			/>
		<path class="st0" d="M32.7,39.2v0.3l0,0v3.6c0,0.1,0,0.9-1.1,0.9s-1.1-0.8-1.1-0.9v-3.6l0,0v-0.3h-0.6h-2.3v-0.8
			c0-0.1,0-0.7,1-0.7h0.1H29h0.2v-0.9H29l0,0h-0.3c-1.3,0-1.9,0.5-1.9,1.5v1H26v0.9h0.7v2.5v1.1V44c0,0,0,0.2,0,0.3
			c-0.1,0.2-0.2,0.4-0.5,0.5l0.6,0.7l0,0c0.4-0.3,0.8-0.8,0.8-1.3v-0.7v-3.4h2v3.3c0,0.5,0.2,0.9,0.6,1.1c0.4,0.2,0.8,0.3,1.4,0.3
			s1.1-0.1,1.4-0.3c0.4-0.2,0.6-0.6,0.6-1.1v-3.6v-0.3v-0.3H32.7z"/>
		<path class="st0" d="M37.6,50.2c0,0.3-0.3,0.7-1.2,0.7c-1,0-1-0.6-1-0.7v-0.7l0,0v-1l0,0v-0.9c0-0.1,0-0.7,1.1-0.7
			s1.1,0.5,1.1,0.7v0.3c0,0.2,0,0.4-0.1,0.5s-0.2,0.1-0.6,0.2l-1.3,0.1v0.8l1.4-0.1c0.6-0.1,1-0.2,1.2-0.4s0.3-0.6,0.3-1.1v-0.3
			c0-0.5-0.2-0.9-0.5-1.1c-0.3-0.2-0.8-0.3-1.4-0.3c-0.6,0-1.1,0-1.5,0.3c-0.4,0.2-0.6,0.7-0.6,1.2v2.8c0,0.5,0.2,0.9,0.6,1.1
			c0.4,0.2,0.9,0.3,1.4,0.3c1.3,0,2-0.5,2-1.4l0,0V50h-0.9V50.2z"/>
		<path class="st0" d="M63.9,50.2c0,0.3-0.3,0.7-1.2,0.7c-1,0-1-0.6-1-0.7v-0.7l0,0v-1l0,0v-0.9c0-0.1,0-0.7,1.1-0.7
			s1.1,0.5,1.1,0.7v0.3c0,0.2,0,0.4-0.1,0.5s-0.2,0.1-0.6,0.2l-1.3,0.1v0.8l1.4-0.1c0.6-0.1,1-0.2,1.2-0.4s0.3-0.6,0.3-1.1v-0.3
			c0-0.5-0.2-0.9-0.5-1.1C64,46.1,63.5,46,62.9,46s-1.1,0-1.5,0.3c-0.4,0.2-0.6,0.7-0.6,1.2v2.8c0,0.5,0.2,0.9,0.6,1.1
			c0.4,0.2,0.9,0.3,1.4,0.3c1.3,0,2-0.5,2-1.4l0,0v-0.5h-0.9V50.2z"/>
		<path class="st0" d="M51,49.9v0.3c0,0.3-0.3,0.7-1.2,0.7c-1,0-1-0.6-1-0.7v-0.7l0,0l0,0v-2c0-0.3,0.3-0.7,1.2-0.7c1,0,1,0.6,1,0.7
			v0.4h0.9v-0.5c0-0.5-0.2-0.9-0.6-1.1C51,46.1,50.5,46,49.9,46c-1.3,0-2,0.5-2,1.4l0,0v0.9v1.2v0.8c0,0.5,0.2,0.9,0.6,1.1
			c0.4,0.2,0.9,0.3,1.4,0.3c1.3,0,2-0.5,2-1.4l0,0v-0.6H51V49.9z"/>
		<path class="st0" d="M49.4,41.4c-0.1,0.1-0.2,0.1-0.6,0.2l-1.3,0.1v0.8l1.4-0.1c0.6-0.1,1-0.2,1.2-0.4s0.3-0.6,0.3-1.1v-0.3
			c0-0.5-0.2-0.9-0.5-1.1c-0.3-0.2-0.7-0.3-1.3-0.3l-0.9,0.9C47.8,40,48,40,48.3,40c1.1,0,1.1,0.5,1.1,0.7V41
			C49.5,41.1,49.4,41.3,49.4,41.4z"/>
		<path class="st0" d="M46.3,43.4c0,0.5,0.2,0.9,0.6,1.1c0.4,0.2,0.9,0.3,1.4,0.3c1.3,0,2-0.5,2-1.4l0,0v-0.5h-0.9v0.3
			c0,0.3-0.3,0.7-1.2,0.7c-1,0-1-0.6-1-0.7v-0.7l0,0v-1l0,0v-0.9c0,0,0-0.1,0-0.2l-0.9,0.9C46.3,41.3,46.3,43.4,46.3,43.4z"/>
		<path class="st0" d="M46.9,39.5c-0.4,0.2-0.6,0.7-0.6,1.2v0.6l2-2.1c0,0,0,0-0.1,0C47.8,39.1,47.4,39.2,46.9,39.5z"/>
		<path class="st0" d="M44.2,40.8c0-0.3,0.1-0.7,0.7-0.7l0,0l0,0h0.6l0.2-0.2l0.6-0.7h-1.4l0,0h-0.1l0,0c-0.4,0-0.8,0.1-1.1,0.4
			c-0.3,0.2-0.5,0.6-0.5,1.1v3.7l0.9-0.9L44.2,40.8z"/>
		<path class="st0" d="M42.9,50.1c0,0.1,0,0.7-1.1,0.7s-1.1-0.6-1.1-0.8v-2.4c0-0.1,0-0.8,1.1-0.8h0.7h0.2v-0.4l0,0l0,0V46h-0.2
			h-0.6h-0.1l0,0c-0.5,0-1,0.1-1.3,0.4c-0.4,0.3-0.6,0.6-0.6,1.1v2.6c0,0.5,0.2,0.9,0.6,1.1c0.4,0.2,0.8,0.3,1.4,0.3
			c0.6,0,1.1-0.1,1.4-0.3c0.4-0.2,0.6-0.6,0.6-1.1V44l-1,1V50.1z"/>
	</g>
</g>
</svg>
