<?xml version="1.0" encoding="utf-8"?>
<!-- Generator: Adobe Illustrator 21.0.0, SVG Export Plug-In . SVG Version: 6.00 Build 0)  -->
<svg version="1.1" id="Layer_1" xmlns="http://www.w3.org/2000/svg" xmlns:xlink="http://www.w3.org/1999/xlink" x="0px" y="0px"
	 width="90px" height="90px" viewBox="0 0 90 90" style="enable-background:new 0 0 90 90;" xml:space="preserve">
<style type="text/css">
	.st0{fill:#FFFFFF;}
</style>
<g>
	<path class="st0" d="M8,78.6c0,0.1,0,0.1,0.1,0.2v0.1c0,0,0,0,0.1,0c0.1,0.1,0.2,0.2,0.2,0.2l0.1,0.1c0.1,0.1,0.3,0.1,0.4,0.1h72
		H81c0.1,0,0.1,0,0.2,0s0.1,0,0.2-0.1c0.1,0,0.1-0.1,0.2-0.1s0.1-0.1,0.1-0.1s0,0,0.1-0.1v-0.1c0-0.1,0.1-0.1,0.1-0.2s0-0.1,0-0.2
		v-0.1V34.2l0,0c0-0.1,0-0.1,0-0.2c0,0,0,0,0-0.1c0.1-0.4,0-0.9-0.4-1.1l-9.8-6v-4.5c0-0.6-0.4-1-1-1h-8.1l-17-10.4
		c-0.3-0.2-0.7-0.2-1,0L27.7,21.1c-0.1,0.1-0.2,0.1-0.2,0.2H20c-0.6,0-1,0.4-1,1v4.1L8.5,32.8C8.1,33,8,33.5,8.1,33.9c0,0,0,0,0,0.1
		s0,0.1,0,0.2l0,0v44.1v0.1C8,78.5,8,78.6,8,78.6z M43,53.4l-33,23V35.9L43,53.4z M80,35.9v40.6l-33.2-23L80,35.9z M44.9,54.5
		l32.9,22.8H12.2L44.9,54.5z M79.5,33.9L71.7,38v-8.9L79.5,33.9z M45.1,12.9l13.8,8.4H31.3L45.1,12.9z M69.7,23.3v15.8L44.9,52.2
		L21,39.5V23.3H69.7z M19,38.4l-8.5-4.5l8.5-5.2V38.4z"/>
	<path class="st0" d="M27.3,31.6H62c0.6,0,1-0.4,1-1s-0.4-1-1-1H27.3c-0.6,0-1,0.4-1,1S26.7,31.6,27.3,31.6z"/>
	<path class="st0" d="M27.3,37.4H62c0.6,0,1-0.4,1-1s-0.4-1-1-1H27.3c-0.6,0-1,0.4-1,1S26.7,37.4,27.3,37.4z"/>
</g>
</svg>
