<?xml version="1.0" encoding="utf-8"?>
<!-- Generator: Adobe Illustrator 21.0.0, SVG Export Plug-In . SVG Version: 6.00 Build 0)  -->
<svg version="1.1" id="Layer_1" xmlns="http://www.w3.org/2000/svg" xmlns:xlink="http://www.w3.org/1999/xlink" x="0px" y="0px"
	 width="90px" height="90px" viewBox="0 0 90 90" style="enable-background:new 0 0 90 90;" xml:space="preserve">
<style type="text/css">
	.st0{fill:#ED1D24;}
</style>
<g>
	<path class="st0" d="M77.2,37.7l-22.3-3L45,14.4l-9.9,20.3l-22.3,3l16.3,15.6l-4,22.3L45,65l19.9,10.7l-4-22.2L77.2,37.7z
		 M62.3,71.9L45,62.8l-17.3,9.2l3.4-19.3L17,39l19.3-2.7l8.5-17.6l8.5,17.6L72.7,39L58.6,52.6L62.3,71.9z"/>
	<polygon class="st0" points="89.6,33.3 75.3,31.4 69.1,18.5 62.6,31.8 64.3,32.6 69.1,23 74.1,33.1 85.2,34.6 77.1,42.5 79,53.7 
		69.5,48.6 68.6,50.3 81.7,57.4 79.3,43.3 	"/>
	<polygon class="st0" points="11,53.7 12.9,42.5 4.8,34.6 15.9,33.1 20.9,23 25.7,32.6 27.4,31.8 20.9,18.5 14.7,31.4 0.4,33.3 
		10.7,43.3 8.3,57.4 21.4,50.3 20.5,48.6 	"/>
	<polygon class="st0" points="42.7,51.1 40.3,48.8 39,50.1 42.7,53.8 51,45.5 49.7,44.1 	"/>
	<path class="st0" d="M45,37.5c-6.2,0-11.1,4.9-11.1,11.1S38.8,59.7,45,59.7s11.1-4.9,11.1-11.1C56.1,42.5,51.2,37.5,45,37.5z
		 M45,57.8c-5.1,0-9.2-4.1-9.2-9.2s4.1-9.2,9.2-9.2s9.2,4.1,9.2,9.2S50.1,57.8,45,57.8z"/>
</g>
</svg>
