<?xml version="1.0" encoding="utf-8"?>
<!-- Generator: Adobe Illustrator 22.1.0, SVG Export Plug-In . SVG Version: 6.00 Build 0)  -->
<svg version="1.1" id="Layer_1" xmlns="http://www.w3.org/2000/svg" xmlns:xlink="http://www.w3.org/1999/xlink" x="0px" y="0px"
	 viewBox="0 0 144 67.3" style="enable-background:new 0 0 144 67.3;" xml:space="preserve">
<style type="text/css">
	.st0{fill:#CB2127;}
	.st1{fill:#6B6B6B;}
</style>
<g>
	<g>
		<path class="st0" d="M19,33.2c-2.1,0-3.8,0.5-5,1.6c-1.2-1-2.9-1.6-5-1.6c-2.2,0-3.8,0.4-5,1.3c-1.3,0.9-2,2.3-2,4.2V54h3.3V39.2
			c0-0.5-0.3-3,3.4-3s3.7,2.2,3.7,2.7v15.1h3.3V39.3c0-0.5,0-3.1,3.7-3.1s3.7,2.5,3.7,3v14.8h3.3V38.7C26.3,35.1,23.9,33.2,19,33.2"
			/>
		<path class="st0" d="M121.2,34.5c-1.3-0.8-3.1-1.3-5.3-1.3c-2.1,0-3.9,0.4-5.2,1.3c-1.4,0.9-2.1,2.3-2.1,4.2v15.4h3.3V39
			c0-0.5,0-2.7,4-2.7s4,2.2,4,2.7v15.1h3.3V38.7C123.3,36.8,122.6,35.4,121.2,34.5"/>
		<path class="st0" d="M56,8.6V23c0,0.5,0,3.3-4,3.3s-4-2.7-4-3.2V8.6l0,0h-9.9V4.1h-3.3v4.5h-2.1v3h2.1V24l0,0c0,0.1,0,0.2,0,0.3
			c0,1.9,1.2,3.7,2.7,4.8l2.3-2.4c-0.8-0.3-1.4-1-1.7-1.8c-0.2-0.5-0.1-1.4-0.1-1.7c0-0.2,0-11.5,0-11.5h6.6v12.3
			c0,1.9,0.7,3.3,2.1,4.2c1.3,0.8,3.1,1.3,5.2,1.3c2.1,0,3.9-0.4,5.3-1.3c1.4-0.9,2.1-2.3,2.1-4.2V8.6H56z"/>
		<path class="st0" d="M75.4,50c-0.2-0.5-0.1-1.4-0.1-1.7c0-0.2,0-9.5,0-14.8h-3.3v15.7l0,0c0,0.1,0,0.2,0,0.3
			c0,1.9,1.2,3.7,2.7,4.8l2.3-2.4C76.2,51.4,75.6,50.8,75.4,50"/>
		<path class="st0" d="M103.4,50c-0.2-0.5-0.1-1.4-0.1-1.7V33.5h-3.3v15.7l0,0c0,0.1,0,0.2,0,0.3c0,1.9,1.2,3.7,2.7,4.8l2.3-2.4
			C104.3,51.4,103.6,50.8,103.4,50"/>
		<path class="st0" d="M25.6,8.6v0.9c0,0.1,0,0.1,0,0.2V23c0,0.5,0,3.3-4,3.3s-4-2.8-4-3.3V9.7c0-0.1,0-0.1,0-0.2V8.6h-2.2H7.1V5.5
			c0-0.5,0-2.5,3.7-2.5h0.3h1h0.9v-3.3h-1l0,0h-1.1c-4.6,0-7,1.8-7,5.5v3.5H1.1v3.3h2.7v9.2V25v1.2c0,0,0,0.8-0.1,1.3
			C3.5,28.3,2.8,29,2,29.3l2.3,2.4l0,0C6,30.6,7.1,28.8,7.1,27c0-0.1,0-2.6,0-2.6V11.9h7.2v12c0,1.9,0.7,3.3,2.1,4.2
			c1.3,0.8,3.1,1.3,5.2,1.3c2.1,0,3.9-0.4,5.3-1.3c1.4-0.9,2.1-2.3,2.1-4.2V10.7v-1V8.6C28.9,8.6,25.6,8.6,25.6,8.6z"/>
		<path class="st0" d="M43.3,48.9c0,1.2-1.2,2.4-4.4,2.4c-3.8-0.1-3.8-2.2-3.8-2.7v-2.7l0,0v-3.8l0,0v-3.2c0-0.5,0-2.6,4.1-2.6
			c4-0.1,4.1,1.7,4.1,2.4v0.9c0,0.9-0.1,1.5-0.4,1.8c-0.2,0.2-0.7,0.5-2.1,0.7L36,42.6v3l5-0.5c2.1-0.2,3.5-0.7,4.3-1.4
			c0.8-0.8,1.2-2.1,1.2-4v-1c0-1.9-0.7-3.4-1.9-4.2c-1.2-0.8-2.8-1.2-5.1-1.2c-2.2,0-3.9,0.1-5.6,1.1c-1.5,0.9-2.2,2.4-2.2,4.3v10.1
			c0,1.9,0.7,3.3,2.1,4.2c1.3,0.8,3.1,1.3,5.3,1.3c4.9,0,7.3-1.7,7.4-5l0,0v-1.7h-3.3L43.3,48.9L43.3,48.9z"/>
		<path class="st0" d="M139.7,48.9c0,1.2-1.2,2.4-4.4,2.4c-3.8-0.1-3.8-2.2-3.8-2.7v-2.7l0,0v-3.8l0,0v-3.2c0-0.5,0-2.6,4.1-2.6
			c4-0.1,4.1,1.7,4.1,2.4v0.9c0,0.9-0.1,1.5-0.4,1.8c-0.2,0.2-0.7,0.5-2.1,0.7l-4.7,0.5v3l5-0.5c2.1-0.2,3.5-0.7,4.3-1.4
			c0.8-0.8,1.2-2.1,1.2-4v-1c0-1.9-0.7-3.4-1.9-4.2c-1.2-0.8-2.8-1.2-5.1-1.2c-2.2,0-3.9,0.1-5.6,1.1c-1.5,0.9-2.2,2.4-2.2,4.3v10.1
			c0,1.9,0.7,3.3,2.1,4.2c1.3,0.8,3.1,1.3,5.3,1.3c4.9,0,7.3-1.7,7.4-5l0,0v-1.7h-3.3L139.7,48.9L139.7,48.9z"/>
		<path class="st0" d="M92.4,47.6l0,1.3c0,1.2-1.2,2.4-4.4,2.4c-3.8-0.1-3.8-2.2-3.8-2.7V46v-0.1v-7.2c0-1.2,1.2-2.4,4.4-2.4
			c3.8,0.1,3.8,2.2,3.8,2.7v1.6h3.3v-1.9c0-1.9-0.7-3.3-2.1-4.2c-1.3-0.8-3.1-1.3-5.3-1.3c-4.9,0-7.3,1.7-7.4,5l0,0v3.3V46v2.8
			c0,1.9,0.7,3.3,2.1,4.2c1.3,0.8,3.1,1.3,5.3,1.3c4.9,0,7.3-1.7,7.4-5l0,0v-2.3h-3.3L92.4,47.6z"/>
		<path class="st0" d="M86.4,16.4c-0.2,0.2-0.7,0.5-2.1,0.7l-4.7,0.5v3l5-0.5c2.1-0.2,3.5-0.7,4.3-1.4c0.8-0.8,1.2-2.1,1.2-4v-1
			c0-1.9-0.7-3.4-1.9-4.2c-1.1-0.8-2.6-1.1-4.7-1.2l-3.3,3.4c0.6-0.2,1.4-0.4,2.5-0.4c4-0.1,4.1,1.7,4.1,2.4v0.9
			C86.8,15.5,86.7,16.1,86.4,16.4"/>
		<path class="st0" d="M75.4,23.8c0,1.9,0.7,3.3,2.1,4.2c1.3,0.8,3.1,1.3,5.3,1.3c4.9,0,7.3-1.7,7.4-5l0,0v-1.7h-3.3v1.3
			c0,1.2-1.2,2.4-4.4,2.4c-3.8-0.1-3.8-2.2-3.8-2.7v-2.7l0,0v-3.9l0,0v-3.2c0-0.1,0-0.4,0.1-0.7l-3.4,3.4L75.4,23.8L75.4,23.8z"/>
		<path class="st0" d="M77.5,9.4c-1.5,0.9-2.2,2.4-2.2,4.3v2.1l7.4-7.6C80.7,8.3,79.2,8.4,77.5,9.4"/>
		<path class="st0" d="M67.5,14.2c0-0.9,0.3-2.7,2.6-2.7l0,0l0,0h2.3l0.6-0.6l2.4-2.5h-5.3l0,0H70l0,0c-1.6,0-2.9,0.4-4.2,1.4
			c-1.1,0.9-1.7,2.3-1.7,4.2v13.3l3.3-3.4L67.5,14.2z"/>
		<path class="st0" d="M62.7,48.4c0,0.5,0,2.7-4,2.7s-4-2.3-4-2.8v-8.8c0-0.5,0-2.8,4-2.8h2.4h0.6v-1.5c0,0,0-0.1,0-0.1
			c0,0,0-0.1,0-0.1v-1.5H61h-2.3h-0.3l0,0c-2,0-3.7,0.5-4.9,1.4c-1.3,1-2.1,2.3-2.1,4.2v9.6c0,1.9,0.7,3.3,2.1,4.2
			c1.3,0.8,3.1,1.3,5.3,1.3c2.1,0,3.9-0.4,5.2-1.3c1.4-0.9,2.1-2.3,2.1-4.2V26.2l-3.3,3.4V48.4z"/>
	</g>
	<g>
		<path class="st1" d="M1.1,60.2v-0.5h3.5v0.5H3.2v4.8H2.5v-4.8H1.1z"/>
		<path class="st1" d="M8.2,62.9c0,1.5-0.6,2.2-1.8,2.2s-1.8-0.7-1.8-2.2c0-1.5,0.6-2.2,1.8-2.2S8.2,61.4,8.2,62.9z M5.8,64.4
			c0.2,0.1,0.4,0.1,0.6,0.1s0.4,0,0.6-0.1c0.2-0.1,0.3-0.2,0.4-0.4c0.1-0.2,0.1-0.3,0.2-0.5c0-0.2,0-0.4,0-0.6s0-0.4,0-0.6
			c0-0.2-0.1-0.3-0.2-0.5c-0.1-0.2-0.2-0.3-0.4-0.4c-0.2-0.1-0.4-0.1-0.6-0.1s-0.4,0-0.6,0.1c-0.2,0.1-0.3,0.2-0.4,0.4
			c-0.1,0.2-0.1,0.3-0.2,0.5c0,0.2,0,0.4,0,0.6c0,0.2,0,0.4,0,0.6c0,0.2,0.1,0.3,0.2,0.5C5.5,64.2,5.6,64.3,5.8,64.4z"/>
		<path class="st1" d="M11.2,60.7c0.6,0,0.9,0.2,1.1,0.6c0.2-0.2,0.4-0.3,0.6-0.4c0.2-0.1,0.5-0.2,0.8-0.2c0.8,0,1.2,0.4,1.2,1.3
			v2.9h-0.6V62c0-0.3-0.1-0.5-0.2-0.6c-0.1-0.1-0.3-0.2-0.6-0.2c-0.4,0-0.8,0.2-1.2,0.5c0,0.1,0,0.2,0,0.3V65h-0.6v-2.9
			c0-0.3-0.1-0.5-0.2-0.6c-0.1-0.1-0.3-0.2-0.6-0.2c-0.4,0-0.8,0.2-1.1,0.4V65H9.4v-4.1h0.4l0.2,0.4C10.3,60.9,10.7,60.7,11.2,60.7z
			"/>
		<path class="st1" d="M19.6,62.9c0,1.5-0.6,2.2-1.8,2.2c-1.2,0-1.8-0.7-1.8-2.2c0-1.5,0.6-2.2,1.8-2.2C19,60.7,19.6,61.4,19.6,62.9
			z M17.3,64.4c0.2,0.1,0.4,0.1,0.6,0.1s0.4,0,0.6-0.1c0.2-0.1,0.3-0.2,0.4-0.4c0.1-0.2,0.1-0.3,0.2-0.5c0-0.2,0-0.4,0-0.6
			s0-0.4,0-0.6c0-0.2-0.1-0.3-0.2-0.5s-0.2-0.3-0.4-0.4c-0.2-0.1-0.4-0.1-0.6-0.1s-0.4,0-0.6,0.1c-0.2,0.1-0.3,0.2-0.4,0.4
			c-0.1,0.2-0.1,0.3-0.2,0.5s0,0.4,0,0.6c0,0.2,0,0.4,0,0.6c0,0.2,0.1,0.3,0.2,0.5C17,64.2,17.1,64.3,17.3,64.4z"/>
		<path class="st1" d="M21.4,64.9h-0.6v-4.1h0.4l0.2,0.7c0.3-0.5,0.8-0.8,1.5-0.8v0.6c-0.6,0-1.1,0.3-1.5,0.8L21.4,64.9L21.4,64.9z"
			/>
		<path class="st1" d="M24.3,64.9h-0.6v-4.1h0.4l0.2,0.7c0.3-0.5,0.8-0.8,1.5-0.8v0.6c-0.6,0-1.1,0.3-1.5,0.8L24.3,64.9L24.3,64.9z"
			/>
		<path class="st1" d="M29.8,62.9c0,1.5-0.6,2.2-1.8,2.2c-1.2,0-1.8-0.7-1.8-2.2c0-1.5,0.6-2.2,1.8-2.2
			C29.2,60.7,29.8,61.4,29.8,62.9z M27.4,64.4c0.2,0.1,0.4,0.1,0.6,0.1s0.4,0,0.6-0.1c0.2-0.1,0.3-0.2,0.4-0.4
			c0.1-0.2,0.1-0.3,0.2-0.5c0-0.2,0-0.4,0-0.6s0-0.4,0-0.6c0-0.2-0.1-0.3-0.2-0.5s-0.2-0.3-0.4-0.4c-0.2-0.1-0.4-0.1-0.6-0.1
			s-0.4,0-0.6,0.1c-0.2,0.1-0.3,0.2-0.4,0.4c-0.1,0.2-0.1,0.3-0.2,0.5c0,0.2,0,0.4,0,0.6c0,0.2,0,0.4,0,0.6c0,0.2,0.1,0.3,0.2,0.5
			C27.1,64.2,27.3,64.3,27.4,64.4z"/>
		<path class="st1" d="M32.1,64.9h-0.6l-1-4.1H31l0.8,3.3l0.8-3h0.5l0.8,3l0.8-3.3h0.6l-1,4.1h-0.6L33,62L32.1,64.9z"/>
		<path class="st1" d="M36.1,59.7h0.7v0.4l-0.1,1.4h-0.4l-0.1-1.4L36.1,59.7L36.1,59.7z"/>
		<path class="st1" d="M40.5,63.1c0.2,0.2,0.3,0.4,0.3,0.8s-0.1,0.6-0.4,0.8c-0.3,0.2-0.6,0.3-1.1,0.3c-0.5,0-0.9-0.1-1.1-0.3
			c-0.2-0.2-0.4-0.5-0.4-0.8l0.5-0.1c0.1,0.5,0.4,0.7,1,0.7c0.6,0,1-0.2,1-0.6c0-0.2-0.1-0.3-0.2-0.4c-0.1-0.1-0.3-0.2-0.6-0.2
			l-0.4-0.1c-0.4-0.1-0.7-0.2-0.9-0.4c-0.2-0.2-0.3-0.4-0.3-0.8s0.1-0.6,0.4-0.8c0.2-0.2,0.6-0.3,1.1-0.3c0.5,0,0.8,0.1,1,0.3
			c0.2,0.2,0.4,0.5,0.4,0.8L40.2,62c-0.1-0.5-0.4-0.7-0.9-0.7c-0.6,0-0.9,0.2-0.9,0.6c0,0.2,0.1,0.3,0.2,0.4s0.3,0.2,0.6,0.2
			l0.4,0.1C40,62.7,40.3,62.9,40.5,63.1z"/>
		<path class="st1" d="M46.4,63.1c0.2,0.2,0.3,0.4,0.3,0.8s-0.1,0.6-0.4,0.8C46,64.9,45.6,65,45.1,65c-0.5,0-0.9-0.1-1.1-0.3
			c-0.2-0.2-0.4-0.5-0.4-0.8l0.5-0.1c0.1,0.5,0.4,0.7,1,0.7c0.6,0,1-0.2,1-0.6c0-0.2-0.1-0.3-0.2-0.4c-0.1-0.1-0.3-0.2-0.6-0.2
			l-0.4-0.1c-0.4-0.1-0.7-0.2-0.9-0.4s-0.3-0.4-0.3-0.8s0.1-0.6,0.4-0.8c0.2-0.2,0.6-0.3,1.1-0.3c0.5,0,0.8,0.1,1,0.3
			c0.2,0.2,0.4,0.5,0.4,0.8L46.1,62c-0.1-0.5-0.4-0.7-0.9-0.7c-0.6,0-0.9,0.2-0.9,0.6c0,0.2,0.1,0.3,0.2,0.4s0.3,0.2,0.6,0.2
			l0.4,0.1C45.9,62.7,46.2,62.9,46.4,63.1z"/>
		<path class="st1" d="M48.1,62.9c0,0.2,0,0.4,0,0.6c0,0.2,0.1,0.4,0.2,0.5c0.2,0.3,0.5,0.5,0.9,0.5c0.4,0,0.6-0.1,0.8-0.2
			s0.2-0.3,0.3-0.6l0.5,0c0,0.4-0.2,0.7-0.4,1S49.7,65,49.2,65c-0.7,0-1.2-0.3-1.5-0.9c-0.1-0.3-0.2-0.7-0.2-1.1s0-0.7,0.1-0.9
			c0-0.2,0.1-0.5,0.2-0.7c0.2-0.4,0.7-0.7,1.4-0.7c0.5,0,0.9,0.1,1.1,0.3c0.2,0.2,0.4,0.5,0.4,0.9l-0.5,0.1c0-0.3-0.1-0.5-0.3-0.6
			c-0.2-0.1-0.4-0.2-0.8-0.2c-0.4,0-0.7,0.2-0.9,0.5C48.1,62,48.1,62.4,48.1,62.9z"/>
		<path class="st1" d="M52.1,60.1c-0.2,0-0.4-0.1-0.4-0.4c0-0.3,0.1-0.4,0.4-0.4c0.3,0,0.4,0.1,0.4,0.4C52.5,60,52.4,60.1,52.1,60.1
			z M51.8,60.8h0.6v4.1h-0.6V60.8z"/>
		<path class="st1" d="M55.3,65c-0.6,0-1.1-0.2-1.3-0.5c-0.3-0.4-0.4-0.9-0.4-1.6c0-1.5,0.6-2.2,1.7-2.2c1.1,0,1.7,0.7,1.7,2.1V63
			h-2.8c0,0.6,0.1,1,0.3,1.2c0.2,0.2,0.5,0.4,0.9,0.4c0.7,0,1-0.3,1.1-0.8l0.5,0C56.8,64.6,56.3,65,55.3,65z M56.1,61.5
			c-0.2-0.2-0.4-0.3-0.8-0.3s-0.6,0.1-0.8,0.3s-0.3,0.5-0.3,0.9h2.2C56.3,62.1,56.3,61.7,56.1,61.5z"/>
		<path class="st1" d="M58.7,61.2c0.5-0.4,1-0.5,1.5-0.5s0.8,0.1,1,0.3c0.2,0.2,0.3,0.5,0.3,1V65h-0.6v-2.9c0-0.3-0.1-0.5-0.2-0.6
			c-0.1-0.1-0.3-0.2-0.5-0.2c-0.4,0-0.9,0.2-1.3,0.5V65h-0.6v-4.1h0.4L58.7,61.2z"/>
		<path class="st1" d="M63.1,62.9c0,0.2,0,0.4,0,0.6c0,0.2,0.1,0.4,0.2,0.5c0.2,0.3,0.5,0.5,0.9,0.5c0.4,0,0.6-0.1,0.8-0.2
			c0.2-0.1,0.2-0.3,0.3-0.6l0.5,0c0,0.4-0.2,0.7-0.4,1S64.7,65,64.2,65c-0.7,0-1.2-0.3-1.5-0.9c-0.1-0.3-0.2-0.7-0.2-1.1
			s0-0.7,0.1-0.9s0.1-0.5,0.2-0.7c0.2-0.4,0.7-0.7,1.4-0.7c0.5,0,0.9,0.1,1.1,0.3c0.2,0.2,0.4,0.5,0.4,0.9l-0.5,0.1
			c0-0.3-0.1-0.5-0.3-0.6c-0.2-0.1-0.4-0.2-0.8-0.2c-0.4,0-0.7,0.2-0.9,0.5C63.2,62,63.1,62.4,63.1,62.9z"/>
		<path class="st1" d="M68.2,65c-0.6,0-1.1-0.2-1.3-0.5c-0.3-0.4-0.4-0.9-0.4-1.6c0-1.5,0.6-2.2,1.7-2.2c1.1,0,1.7,0.7,1.7,2.1V63
			h-2.8c0,0.6,0.1,1,0.3,1.2c0.2,0.2,0.5,0.4,0.9,0.4c0.7,0,1-0.3,1.1-0.8l0.5,0C69.7,64.6,69.2,65,68.2,65z M69,61.5
			c-0.2-0.2-0.4-0.3-0.8-0.3s-0.6,0.1-0.8,0.3s-0.3,0.5-0.3,0.9h2.2C69.2,62.1,69.1,61.7,69,61.5z"/>
		<path class="st1" d="M73.8,59.8c-0.4,0-0.6,0.2-0.6,0.6v0.3h0.9v0.4h-0.9v3.7h-0.6v-3.7h-0.5v-0.4h0.5v-0.3c0-0.8,0.4-1.1,1.1-1.1
			c0.3,0,0.5,0,0.8,0.1l-0.2,0.5C74.2,59.9,74,59.8,73.8,59.8z"/>
		<path class="st1" d="M78.2,62.9c0,1.5-0.6,2.2-1.8,2.2c-1.2,0-1.8-0.7-1.8-2.2c0-1.5,0.6-2.2,1.8-2.2
			C77.6,60.7,78.2,61.4,78.2,62.9z M75.8,64.4c0.2,0.1,0.4,0.1,0.6,0.1c0.2,0,0.4,0,0.6-0.1c0.2-0.1,0.3-0.2,0.4-0.4
			c0.1-0.2,0.1-0.3,0.2-0.5c0-0.2,0-0.4,0-0.6s0-0.4,0-0.6c0-0.2-0.1-0.3-0.2-0.5s-0.2-0.3-0.4-0.4c-0.2-0.1-0.4-0.1-0.6-0.1
			c-0.2,0-0.4,0-0.6,0.1c-0.2,0.1-0.3,0.2-0.4,0.4c-0.1,0.2-0.1,0.3-0.2,0.5s0,0.4,0,0.6c0,0.2,0,0.4,0,0.6c0,0.2,0.1,0.3,0.2,0.5
			C75.5,64.2,75.6,64.3,75.8,64.4z"/>
		<path class="st1" d="M79.9,64.9h-0.6v-4.1h0.4l0.2,0.7c0.3-0.5,0.8-0.8,1.5-0.8v0.6c-0.6,0-1.1,0.3-1.5,0.8L79.9,64.9L79.9,64.9z"
			/>
		<path class="st1" d="M83.7,61.2v-0.4h0.7v-0.7l0.6-0.2v1h0.9v0.4H85V64c0,0.2,0,0.4,0.1,0.5s0.1,0.1,0.3,0.1s0.3,0,0.4-0.1
			l0.1,0.4c-0.3,0.1-0.5,0.1-0.7,0.1c-0.2,0-0.3,0-0.4-0.1c-0.1-0.1-0.2-0.1-0.2-0.3c-0.1-0.2-0.1-0.4-0.1-0.7v-2.8L83.7,61.2
			L83.7,61.2z"/>
		<path class="st1" d="M90,62.9c0,1.5-0.6,2.2-1.8,2.2c-1.2,0-1.8-0.7-1.8-2.2c0-1.5,0.6-2.2,1.8-2.2C89.4,60.7,90,61.4,90,62.9z
			 M87.6,64.4c0.2,0.1,0.4,0.1,0.6,0.1c0.2,0,0.4,0,0.6-0.1c0.2-0.1,0.3-0.2,0.4-0.4c0.1-0.2,0.1-0.3,0.2-0.5c0-0.2,0-0.4,0-0.6
			s0-0.4,0-0.6c0-0.2-0.1-0.3-0.2-0.5s-0.2-0.3-0.4-0.4c-0.2-0.1-0.4-0.1-0.6-0.1c-0.2,0-0.4,0-0.6,0.1c-0.2,0.1-0.3,0.2-0.4,0.4
			c-0.1,0.2-0.1,0.3-0.2,0.5s0,0.4,0,0.6c0,0.2,0,0.4,0,0.6c0,0.2,0.1,0.3,0.2,0.5C87.3,64.2,87.5,64.3,87.6,64.4z"/>
		<path class="st1" d="M92.1,65c-0.9,0-1.3-0.7-1.3-2.2s0.5-2.2,1.6-2.2c0.4,0,0.7,0.1,1.1,0.3v-1.5l0.6-0.1v5.5h-0.4l-0.2-0.6
			C93.1,64.8,92.6,65,92.1,65z M92.3,64.5c0.4,0,0.8-0.2,1.2-0.7v-2.4c-0.3-0.2-0.7-0.3-1-0.3c-0.4,0-0.7,0.1-0.8,0.4
			c-0.2,0.3-0.2,0.7-0.2,1.2C91.4,64,91.7,64.5,92.3,64.5z"/>
		<path class="st1" d="M98,61c0.3,0.2,0.4,0.6,0.4,1.2V65h-0.4l-0.2-0.6c-0.5,0.5-1,0.7-1.5,0.7c-0.4,0-0.6-0.1-0.8-0.3
			c-0.2-0.2-0.3-0.4-0.3-0.8c0-0.3,0.1-0.6,0.3-0.8c0.2-0.2,0.6-0.3,1.1-0.4l1.1-0.2v-0.4c0-0.4-0.1-0.6-0.2-0.7
			c-0.1-0.1-0.4-0.2-0.6-0.2c-0.5,0-0.8,0.3-0.9,0.8l-0.5-0.1c0.1-0.4,0.2-0.6,0.5-0.8c0.2-0.2,0.6-0.3,1-0.3S97.8,60.8,98,61z
			 M96.6,64.5c0.4,0,0.9-0.2,1.3-0.7V63l-1,0.2c-0.3,0.1-0.6,0.2-0.7,0.3S96,63.7,96,63.9c0,0.2,0,0.3,0.1,0.4S96.3,64.5,96.6,64.5z
			"/>
		<path class="st1" d="M100.8,66.7l-0.6-0.1l0.6-1.7l-1.6-4.1h0.6l1.2,3.3l1.2-3.3h0.6L100.8,66.7z"/>
		<path class="st1" d="M103.6,59.7h0.7v0.4l-0.1,1.4h-0.4l-0.1-1.4L103.6,59.7L103.6,59.7z"/>
		<path class="st1" d="M108,63.1c0.2,0.2,0.3,0.4,0.3,0.8s-0.1,0.6-0.4,0.8c-0.3,0.2-0.6,0.3-1.1,0.3c-0.5,0-0.9-0.1-1.1-0.3
			c-0.2-0.2-0.4-0.5-0.4-0.8l0.5-0.1c0.1,0.5,0.4,0.7,1,0.7c0.6,0,1-0.2,1-0.6c0-0.2-0.1-0.3-0.2-0.4c-0.1-0.1-0.3-0.2-0.6-0.2
			l-0.4-0.1c-0.4-0.1-0.7-0.2-0.9-0.4s-0.3-0.4-0.3-0.8s0.1-0.6,0.4-0.8c0.2-0.2,0.6-0.3,1.1-0.3c0.5,0,0.8,0.1,1,0.3
			c0.2,0.2,0.4,0.5,0.4,0.8l-0.5,0.1c-0.1-0.5-0.4-0.7-0.9-0.7c-0.6,0-0.9,0.2-0.9,0.6c0,0.2,0.1,0.3,0.2,0.4
			c0.1,0.1,0.3,0.2,0.6,0.2l0.4,0.1C107.5,62.7,107.8,62.9,108,63.1z"/>
		<path class="st1" d="M111.7,62.9c0,0.2,0,0.4,0,0.6c0,0.2,0.1,0.4,0.2,0.5c0.2,0.3,0.5,0.5,0.9,0.5c0.4,0,0.6-0.1,0.8-0.2
			s0.2-0.3,0.3-0.6l0.5,0c0,0.4-0.2,0.7-0.4,1c-0.2,0.2-0.6,0.3-1.1,0.3c-0.7,0-1.2-0.3-1.5-0.9c-0.1-0.3-0.2-0.7-0.2-1.1
			s0-0.7,0.1-0.9s0.1-0.5,0.2-0.7c0.2-0.4,0.7-0.7,1.4-0.7c0.5,0,0.9,0.1,1.1,0.3c0.2,0.2,0.4,0.5,0.4,0.9l-0.5,0.1
			c0-0.3-0.1-0.5-0.3-0.6c-0.2-0.1-0.4-0.2-0.8-0.2c-0.4,0-0.7,0.2-0.9,0.5C111.8,62,111.7,62.4,111.7,62.9z"/>
		<path class="st1" d="M116.1,64.9h-0.6v-5.5l0.6-0.1V64.9z"/>
		<path class="st1" d="M117.9,60.1c-0.2,0-0.4-0.1-0.4-0.4c0-0.3,0.1-0.4,0.4-0.4c0.3,0,0.4,0.1,0.4,0.4
			C118.3,60,118.2,60.1,117.9,60.1z M117.6,60.8h0.6v4.1h-0.6V60.8z"/>
		<path class="st1" d="M120.3,61.2c0.5-0.4,1-0.5,1.5-0.5s0.8,0.1,1,0.3c0.2,0.2,0.3,0.5,0.3,1V65h-0.6v-2.9c0-0.3-0.1-0.5-0.2-0.6
			c-0.1-0.1-0.3-0.2-0.5-0.2c-0.4,0-0.9,0.2-1.3,0.5V65h-0.7v-4.1h0.4L120.3,61.2z"/>
		<path class="st1" d="M124.8,60.1c-0.2,0-0.4-0.1-0.4-0.4c0-0.3,0.1-0.4,0.4-0.4c0.3,0,0.4,0.1,0.4,0.4
			C125.2,60,125,60.1,124.8,60.1z M124.5,60.8h0.6v4.1h-0.6V60.8z"/>
		<path class="st1" d="M126.9,62.9c0,0.2,0,0.4,0,0.6c0,0.2,0.1,0.4,0.2,0.5c0.2,0.3,0.5,0.5,0.9,0.5c0.4,0,0.6-0.1,0.8-0.2
			s0.2-0.3,0.3-0.6l0.5,0c0,0.4-0.2,0.7-0.4,1c-0.2,0.2-0.6,0.3-1.1,0.3c-0.7,0-1.2-0.3-1.5-0.9c-0.1-0.3-0.2-0.7-0.2-1.1
			s0-0.7,0.1-0.9c0-0.2,0.1-0.5,0.2-0.7c0.2-0.4,0.7-0.7,1.4-0.7c0.5,0,0.9,0.1,1.1,0.3s0.4,0.5,0.4,0.9l-0.5,0.1
			c0-0.3-0.1-0.5-0.3-0.6c-0.2-0.1-0.4-0.2-0.8-0.2c-0.4,0-0.7,0.2-0.9,0.5C126.9,62,126.9,62.4,126.9,62.9z"/>
		<path class="st1" d="M130.9,60.1c-0.2,0-0.4-0.1-0.4-0.4c0-0.3,0.1-0.4,0.4-0.4c0.3,0,0.4,0.1,0.4,0.4
			C131.3,60,131.2,60.1,130.9,60.1z M130.6,60.8h0.6v4.1h-0.6V60.8z"/>
		<path class="st1" d="M135.1,61c0.3,0.2,0.4,0.6,0.4,1.2V65h-0.4l-0.2-0.6c-0.5,0.5-1,0.7-1.5,0.7c-0.4,0-0.6-0.1-0.8-0.3
			c-0.2-0.2-0.3-0.4-0.3-0.8c0-0.3,0.1-0.6,0.3-0.8c0.2-0.2,0.6-0.3,1.1-0.4l1.1-0.2v-0.4c0-0.4-0.1-0.6-0.2-0.7
			c-0.1-0.1-0.4-0.2-0.6-0.2c-0.5,0-0.8,0.3-0.9,0.8l-0.5-0.1c0.1-0.4,0.2-0.6,0.5-0.8c0.2-0.2,0.6-0.3,1-0.3S134.8,60.8,135.1,61z
			 M133.6,64.5c0.4,0,0.9-0.2,1.3-0.7V63l-1,0.2c-0.3,0.1-0.6,0.2-0.7,0.3s-0.2,0.3-0.2,0.5c0,0.2,0,0.3,0.1,0.4
			C133.2,64.4,133.4,64.5,133.6,64.5z"/>
		<path class="st1" d="M137.5,61.2c0.5-0.4,1-0.5,1.5-0.5s0.8,0.1,1,0.3c0.2,0.2,0.3,0.5,0.3,1V65h-0.6v-2.9c0-0.3-0.1-0.5-0.2-0.6
			c-0.1-0.1-0.3-0.2-0.5-0.2c-0.4,0-0.9,0.2-1.3,0.5V65H137v-4.1h0.4L137.5,61.2z"/>
		<path class="st1" d="M142.1,64.7c0,0.1,0,0.1-0.1,0.2c-0.1,0-0.1,0.1-0.3,0.1c-0.1,0-0.2,0-0.3-0.1s-0.1-0.1-0.1-0.2s0-0.1,0-0.2
			s0-0.1,0-0.2s0-0.1,0-0.1c0-0.1,0.1-0.2,0.3-0.2c0.2,0,0.3,0,0.3,0.1s0.1,0.2,0.1,0.3S142.1,64.7,142.1,64.7z"/>
	</g>
</g>
</svg>
