<svg xmlns="http://www.w3.org/2000/svg" viewBox="0 0 124.6 58.83"><defs><style>.cls-1{fill:#fff;}</style></defs><title>Asset 2</title><g id="Layer_2" data-name="Layer 2"><g id="Layer_1-2" data-name="Layer 1"><path class="cls-1" d="M15.72,29.42a6.3,6.3,0,0,0-4.39,1.4,6.75,6.75,0,0,0-4.39-1.4,7.06,7.06,0,0,0-4.39,1.14A4.19,4.19,0,0,0,.79,34.25V47.68h2.9v-13c0-.44-.27-2.64,3-2.64S9.92,34,9.92,34.42V47.68h2.9V34.77c0-.44,0-2.72,3.25-2.72s3.25,2.2,3.25,2.64v13h2.9V34.25c-.09-3.16-2.2-4.83-6.5-4.83"/><path class="cls-1" d="M105.46,30.56a8.89,8.89,0,0,0-4.65-1.14,8,8,0,0,0-4.57,1.14,4.07,4.07,0,0,0-1.84,3.69V47.77h2.89V34.51c0-.44,0-2.37,3.52-2.37s3.51,1.93,3.51,2.37V47.77h2.9V34.25a3.86,3.86,0,0,0-1.76-3.69"/><path class="cls-1" d="M48.21,7.82V20.46c0,.44,0,2.9-3.51,2.9S41.18,21,41.18,20.55V7.82H32.49v-4h-2.9v4H27.75v2.63h1.84V21.34h0v.26A5.54,5.54,0,0,0,32,25.82l2-2.11a2.64,2.64,0,0,1-1.49-1.58,4.39,4.39,0,0,1-.09-1.49V10.54h5.8v10.8A4.07,4.07,0,0,0,40,25a8.79,8.79,0,0,0,4.57,1.14A8.51,8.51,0,0,0,49.26,25a4.08,4.08,0,0,0,1.85-3.69V7.82Z"/><path class="cls-1" d="M65.24,44.17a4.62,4.62,0,0,1-.08-1.49v-13h-2.9V43.47h0v.26a5.47,5.47,0,0,0,2.37,4.21l2-2.1a2.92,2.92,0,0,1-1.41-1.67"/><path class="cls-1" d="M89.83,44.17a4.39,4.39,0,0,1-.09-1.49v-13H86.85V43.47h0v.26a5.47,5.47,0,0,0,2.37,4.21l2-2.1a3.25,3.25,0,0,1-1.41-1.67"/><path class="cls-1" d="M21.51,7.82V20.46c0,.44,0,2.9-3.51,2.9s-3.51-2.46-3.51-2.9V7.82H5.27V5.09c0-.44,0-2.19,3.25-2.19h1.93V0H8.61c-4,0-6.15,1.58-6.15,4.83V7.9H0v2.9H2.37V23.27a7.25,7.25,0,0,1-.09,1.14A2.42,2.42,0,0,1,.79,26l2,2.11h0A5.13,5.13,0,0,0,5.27,24V10.71h6.32V21.25a4.08,4.08,0,0,0,1.85,3.69A8.78,8.78,0,0,0,18,26.08a8.52,8.52,0,0,0,4.66-1.14,4.09,4.09,0,0,0,1.84-3.69V7.82Z"/><path class="cls-1" d="M37.06,43.2c0,1.06-1.06,2.11-3.87,2.11-3.33-.09-3.33-1.93-3.33-2.37V40.57h0V37.23h0V34.42c0-.44,0-2.28,3.6-2.28s3.6,1.49,3.6,2.11V35a2.29,2.29,0,0,1-.36,1.58,3.27,3.27,0,0,1-1.84.61l-4.21.44v2.64L35,39.87a6.81,6.81,0,0,0,3.77-1.23,4.84,4.84,0,0,0,1.06-3.52v-.87a4.26,4.26,0,0,0-1.67-3.69,7.88,7.88,0,0,0-4.48-1.06,9,9,0,0,0-4.92,1,4.1,4.1,0,0,0-1.93,3.78v8.87a4.06,4.06,0,0,0,1.84,3.68,8.86,8.86,0,0,0,4.66,1.14c4.3,0,6.41-1.49,6.5-4.39h0V42.06H37l.09,1.14Z"/><path class="cls-1" d="M121.71,43.2c0,1.06-1.06,2.11-3.87,2.11-3.33-.09-3.33-1.93-3.33-2.37V40.57h0V37.23h0V34.42c0-.44,0-2.28,3.6-2.28s3.6,1.49,3.6,2.11V35a2.29,2.29,0,0,1-.36,1.58,3.27,3.27,0,0,1-1.84.61l-4.13.44v2.64l4.39-.44a6.81,6.81,0,0,0,3.78-1.23,4.84,4.84,0,0,0,1-3.52v-.87a4.26,4.26,0,0,0-1.66-3.69,7.88,7.88,0,0,0-4.48-1.06,9,9,0,0,0-4.92,1,4.1,4.1,0,0,0-1.93,3.78v8.87a4.06,4.06,0,0,0,1.84,3.68,8.81,8.81,0,0,0,4.66,1.14c4.3,0,6.41-1.49,6.49-4.39h0V42.06h-2.89V43.2Z"/><path class="cls-1" d="M80.17,42.06V43.2c0,1.06-1,2.11-3.86,2.11C73,45.22,73,43.38,73,42.94V34.25c0-1.06,1-2.11,3.86-2.11,3.34.09,3.34,1.93,3.34,2.37v1.4h2.9V34.25a4.09,4.09,0,0,0-1.84-3.69,9,9,0,0,0-4.66-1.14c-4.3,0-6.41,1.49-6.5,4.39h0v9.31a4.07,4.07,0,0,0,1.85,3.68,8.8,8.8,0,0,0,4.65,1.14c4.3,0,6.41-1.49,6.5-4.39h0v-2h-2.9Z"/><path class="cls-1" d="M74.9,14.66a3.24,3.24,0,0,1-1.84.62l-4.13.44v2.63l4.39-.44a6.66,6.66,0,0,0,3.78-1.23,4.8,4.8,0,0,0,1.05-3.51v-.88a4.23,4.23,0,0,0-1.67-3.68,7.41,7.41,0,0,0-4.12-1.06l-2.9,3a6.6,6.6,0,0,1,2.19-.35c3.52-.09,3.6,1.49,3.6,2.1v.79a2.28,2.28,0,0,1-.35,1.58"/><path class="cls-1" d="M65.24,21.16a4.08,4.08,0,0,0,1.85,3.69A8.89,8.89,0,0,0,71.74,26c4.3,0,6.41-1.49,6.5-4.39h0V20.11h-2.9v1.14c0,1.05-1,2.11-3.86,2.11-3.34-.09-3.34-1.93-3.34-2.37V18.62h0V15.19h0V12.38a1.89,1.89,0,0,1,.09-.61l-3,3v6.41Z"/><path class="cls-1" d="M67.09,8.52a4.1,4.1,0,0,0-1.93,3.77v1.85l6.49-6.68a9,9,0,0,0-4.56,1.06"/><path class="cls-1" d="M58.31,12.73a2.13,2.13,0,0,1,2.28-2.37h2l.53-.53,2.1-2.19H60.5a5.69,5.69,0,0,0-3.69,1.23,4.53,4.53,0,0,0-1.49,3.69V24.24l2.9-3Z"/><path class="cls-1" d="M54.09,42.76c0,.44,0,2.37-3.51,2.37s-3.51-2-3.51-2.45V35c0-.44,0-2.46,3.51-2.46h2.63V29.68H50.32A7.18,7.18,0,0,0,46,30.91a4.38,4.38,0,0,0-1.84,3.69V43A4.07,4.07,0,0,0,46,46.72a8.93,8.93,0,0,0,4.66,1.14,8,8,0,0,0,4.56-1.14A4.08,4.08,0,0,0,57.08,43V23.27l-2.9,3v16.5Z"/><path class="cls-1" d="M0,53.13v-.44H3.07v.44H1.84v4.21H1.23V53.13Z"/><path class="cls-1" d="M6.23,55.5c0,1.31-.52,1.93-1.58,1.93s-1.58-.62-1.58-1.93.53-1.94,1.58-1.94S6.23,54.18,6.23,55.5Zm-2.1,1.31a1.06,1.06,0,0,0,.52.09,1.08,1.08,0,0,0,.53-.09.63.63,0,0,0,.35-.35c.09-.17.09-.26.18-.44V55c0-.18-.09-.26-.18-.44a.67.67,0,0,0-.35-.35,1.08,1.08,0,0,0-.53-.09,1.06,1.06,0,0,0-.52.09.63.63,0,0,0-.35.35c-.09.18-.09.26-.18.44V56c0,.18.09.27.18.44A.6.6,0,0,0,4.13,56.81Z"/><path class="cls-1" d="M8.87,53.56a.92.92,0,0,1,1,.53,2.2,2.2,0,0,1,.53-.35,1.64,1.64,0,0,1,.7-.18c.71,0,1.06.36,1.06,1.15v2.54h-.53V54.71a.78.78,0,0,0-.17-.53.75.75,0,0,0-.53-.18,1.89,1.89,0,0,0-1.06.44v2.9H9.31V54.79a.7.7,0,0,0-.18-.52.72.72,0,0,0-.52-.18,1.86,1.86,0,0,0-1,.35v2.9H7.29v-3.6h.35l.18.35A1.25,1.25,0,0,1,8.87,53.56Z"/><path class="cls-1" d="M16.25,55.5c0,1.31-.53,1.93-1.59,1.93s-1.58-.62-1.58-1.93.53-1.94,1.58-1.94S16.25,54.18,16.25,55.5Zm-2,1.31a1.06,1.06,0,0,0,.52.09,1.1,1.1,0,0,0,.53-.09.67.67,0,0,0,.35-.35c.09-.17.09-.26.18-.44V55c0-.18-.09-.26-.18-.44a.7.7,0,0,0-.35-.35,1.1,1.1,0,0,0-.53-.09,1.06,1.06,0,0,0-.52.09.68.68,0,0,0-.36.35c-.08.18-.08.26-.17.44s0,.35,0,.53V56c0,.18.09.27.17.44A.65.65,0,0,0,14.23,56.81Z"/><path class="cls-1" d="M17.83,57.25H17.3v-3.6h.35l.18.62a1.44,1.44,0,0,1,1.31-.71v.53a1.66,1.66,0,0,0-1.31.7v2.46Z"/><path class="cls-1" d="M20.37,57.25h-.52v-3.6h.35l.17.62a1.45,1.45,0,0,1,1.32-.71v.53a1.66,1.66,0,0,0-1.32.7v2.46Z"/><path class="cls-1" d="M25.2,55.5c0,1.31-.53,1.93-1.58,1.93S22,56.81,22,55.5s.53-1.94,1.58-1.94S25.2,54.18,25.2,55.5Zm-2.11,1.31a1.12,1.12,0,0,0,.53.09,1.1,1.1,0,0,0,.53-.09.67.67,0,0,0,.35-.35c.09-.17.09-.26.17-.44V55c0-.18-.08-.26-.17-.44a.7.7,0,0,0-.35-.35,1.1,1.1,0,0,0-.53-.09,1.12,1.12,0,0,0-.53.09.7.7,0,0,0-.35.35c-.08.18-.08.26-.17.44V56c0,.18.09.27.17.44S23,56.73,23.09,56.81Z"/><path class="cls-1" d="M27.22,57.25h-.53l-.87-3.6h.44l.7,2.9.7-2.63h.44l.7,2.63.7-2.9H30l-.88,3.6h-.52L28,54.71Z"/><path class="cls-1" d="M30.73,52.69h.62V53l-.09,1.23h-.35L30.82,53l-.09-.35Z"/><path class="cls-1" d="M34.6,55.67a.88.88,0,0,1,.26.7.73.73,0,0,1-.35.71,1.62,1.62,0,0,1-1,.26,1.41,1.41,0,0,1-1-.26,1.08,1.08,0,0,1-.35-.71l.44-.08c.08.44.35.61.87.61s.88-.17.88-.53a.49.49,0,0,0-.17-.35.8.8,0,0,0-.53-.17l-.35-.09a1.71,1.71,0,0,1-.79-.35.86.86,0,0,1-.27-.7.72.72,0,0,1,.36-.71,1.41,1.41,0,0,1,1-.26,1.2,1.2,0,0,1,.88.26,1.08,1.08,0,0,1,.35.71h-.53a.7.7,0,0,0-.79-.62c-.52,0-.79.18-.79.53a.46.46,0,0,0,.18.35.73.73,0,0,0,.53.18l.35.08A1.8,1.8,0,0,1,34.6,55.67Z"/><path class="cls-1" d="M39.78,55.67a.88.88,0,0,1,.26.7.73.73,0,0,1-.35.71,1.9,1.9,0,0,1-1,.26,1.46,1.46,0,0,1-1-.26,1.12,1.12,0,0,1-.35-.71l.44-.08c.09.44.35.61.88.61s.87-.17.87-.53a.46.46,0,0,0-.17-.35.78.78,0,0,0-.53-.17l-.35-.09a1.76,1.76,0,0,1-.79-.35.88.88,0,0,1-.26-.7.73.73,0,0,1,.35-.71,1.43,1.43,0,0,1,1-.26,1.18,1.18,0,0,1,.88.26,1.08,1.08,0,0,1,.35.71h-.44a.7.7,0,0,0-.79-.62c-.52,0-.79.18-.79.53a.46.46,0,0,0,.18.35.73.73,0,0,0,.53.18l.35.08A1.8,1.8,0,0,1,39.78,55.67Z"/><path class="cls-1" d="M41.27,55.5V56a.66.66,0,0,0,.18.44.9.9,0,0,0,.79.44,1.46,1.46,0,0,0,.7-.17c.18-.09.18-.27.26-.53h.44a1.56,1.56,0,0,1-.35.88c-.17.26-.61.26-1,.26a1.35,1.35,0,0,1-1.32-.79,3,3,0,0,1-.18-1,1.92,1.92,0,0,1,.09-.79,1.58,1.58,0,0,1,.18-.61,1.31,1.31,0,0,1,1.23-.62,1.36,1.36,0,0,1,1,.27,1.09,1.09,0,0,1,.35.79l-.43.09a.53.53,0,0,0-.27-.53,1.31,1.31,0,0,0-.7-.18.92.92,0,0,0-.79.44A3.6,3.6,0,0,0,41.27,55.5Z"/><path class="cls-1" d="M44.78,53a.32.32,0,0,1-.35-.35c0-.27.09-.35.35-.35s.35.08.35.35S45.05,53,44.78,53Zm-.26.61h.53v3.6h-.53Z"/><path class="cls-1" d="M47.59,57.34a1.41,1.41,0,0,1-1.14-.44,2.24,2.24,0,0,1-.35-1.4c0-1.32.53-1.94,1.49-1.94s1.5.62,1.5,1.85v.17H46.63a1.58,1.58,0,0,0,.26,1.06,1.15,1.15,0,0,0,.79.35c.62,0,.88-.26,1-.7h.44A1.32,1.32,0,0,1,47.59,57.34Zm.71-3.07a.88.88,0,0,0-.71-.27.86.86,0,0,0-.7.27,1.09,1.09,0,0,0-.26.79h1.93C48.47,54.79,48.47,54.44,48.3,54.27Z"/><path class="cls-1" d="M50.58,54a2,2,0,0,1,1.32-.44,1.12,1.12,0,0,1,.87.27,1.14,1.14,0,0,1,.27.88v2.63h-.53V54.79a.75.75,0,0,0-.17-.52.68.68,0,0,0-.44-.18,2.15,2.15,0,0,0-1.15.44v2.81h-.52v-3.6h.35Z"/><path class="cls-1" d="M54.44,55.5V56a.66.66,0,0,0,.18.44.9.9,0,0,0,.79.44,1.42,1.42,0,0,0,.7-.17c.18-.09.18-.27.26-.53h.44a1.56,1.56,0,0,1-.35.88c-.17.26-.61.26-1.05.26a1.35,1.35,0,0,1-1.32-.79,3.06,3.06,0,0,1-.17-1,2.14,2.14,0,0,1,.08-.79c.09-.17.09-.44.18-.61a1.31,1.31,0,0,1,1.23-.62,1.36,1.36,0,0,1,1,.27,1.09,1.09,0,0,1,.36.79l-.44.09a.53.53,0,0,0-.27-.53,1.31,1.31,0,0,0-.7-.18.94.94,0,0,0-.79.44C54.53,54.71,54.44,55.06,54.44,55.5Z"/><path class="cls-1" d="M58.92,57.34a1.39,1.39,0,0,1-1.14-.44,2.24,2.24,0,0,1-.35-1.4c0-1.32.53-1.94,1.49-1.94s1.49.62,1.49,1.85v.17H58a1.53,1.53,0,0,0,.26,1.06A1.13,1.13,0,0,0,59,57c.61,0,.88-.26,1-.7h.44A1.31,1.31,0,0,1,58.92,57.34Zm.7-3.07a1,1,0,0,0-1.4,0,1,1,0,0,0-.26.79h1.93A7.14,7.14,0,0,0,59.62,54.27Z"/><path class="cls-1" d="M63.84,52.77a.47.47,0,0,0-.53.53v.26h.79v.36h-.79v3.24h-.53V53.92h-.43v-.36h.43V53.3c0-.7.36-1,1-1a2.1,2.1,0,0,1,.7.08l-.17.44A4.13,4.13,0,0,0,63.84,52.77Z"/><path class="cls-1" d="M67.7,55.5c0,1.31-.52,1.93-1.58,1.93s-1.58-.62-1.58-1.93.53-1.94,1.58-1.94S67.7,54.18,67.7,55.5Zm-2.11,1.31a1.12,1.12,0,0,0,.53.09,1.1,1.1,0,0,0,.53-.09.67.67,0,0,0,.35-.35c.09-.17.09-.26.18-.44V55c0-.18-.09-.26-.18-.44a.7.7,0,0,0-.35-.35,1.1,1.1,0,0,0-.53-.09,1.12,1.12,0,0,0-.53.09.7.7,0,0,0-.35.35c-.08.18-.08.26-.17.44s0,.35,0,.53V56c0,.18.09.27.17.44A.67.67,0,0,0,65.59,56.81Z"/><path class="cls-1" d="M69.2,57.25h-.53v-3.6H69l.18.62a1.44,1.44,0,0,1,1.31-.71v.53a1.66,1.66,0,0,0-1.31.7v2.46Z"/><path class="cls-1" d="M72.53,54v-.35h.62V53l.52-.18v.88h.79v.35h-.79v2.37a.64.64,0,0,0,.09.44c.09.09.09.09.26.09s.27,0,.36-.09l.08.35a1.66,1.66,0,0,1-.61.09c-.18,0-.26,0-.35-.09s-.18-.09-.18-.26a1.29,1.29,0,0,1-.09-.62V53.92l-.7.08Z"/><path class="cls-1" d="M78.06,55.5c0,1.31-.52,1.93-1.58,1.93s-1.58-.62-1.58-1.93.53-1.94,1.58-1.94S78.06,54.18,78.06,55.5ZM76,56.81a1.06,1.06,0,0,0,.52.09,1.1,1.1,0,0,0,.53-.09.63.63,0,0,0,.35-.35c.09-.17.09-.26.18-.44V55c0-.18-.09-.26-.18-.44a.67.67,0,0,0-.35-.35,1.1,1.1,0,0,0-.53-.09,1.06,1.06,0,0,0-.52.09.63.63,0,0,0-.35.35c-.09.18-.09.26-.18.44s0,.35,0,.53V56c0,.18.09.27.18.44S75.87,56.73,76,56.81Z"/><path class="cls-1" d="M79.91,57.34c-.79,0-1.14-.61-1.14-1.93s.44-1.93,1.4-1.93a2,2,0,0,1,1,.26V52.42l.52-.08v4.82h-.35l-.17-.52A1.43,1.43,0,0,1,79.91,57.34Zm.17-.44a1.36,1.36,0,0,0,1.06-.61V54.18a1.68,1.68,0,0,0-.88-.26c-.35,0-.62.08-.7.35a1.84,1.84,0,0,0-.18,1C79.29,56.46,79.56,56.9,80.08,56.9Z"/><path class="cls-1" d="M85.09,53.83c.26.17.35.52.35,1.05v2.46h-.35l-.18-.53a1.82,1.82,0,0,1-1.31.62.91.91,0,0,1-1-1,1,1,0,0,1,.26-.7,2,2,0,0,1,1-.35l1-.18v-.35a.8.8,0,0,0-.18-.61.93.93,0,0,0-.53-.18.77.77,0,0,0-.79.7l-.44-.08a1,1,0,0,1,.44-.71,1.36,1.36,0,0,1,.88-.26C84.56,53.74,84.91,53.65,85.09,53.83ZM83.86,56.9A1.49,1.49,0,0,0,85,56.29v-.71l-.88.18a2.48,2.48,0,0,0-.61.26.46.46,0,0,0-.18.35c0,.18,0,.27.09.36A.55.55,0,0,0,83.86,56.9Z"/><path class="cls-1" d="M87.55,58.83,87,58.75l.53-1.5-1.41-3.6h.53l1,2.9,1.06-2.9h.52Z"/><path class="cls-1" d="M90,52.69h.61V53l-.09,1.23h-.35L90.09,53,90,52.69Z"/><path class="cls-1" d="M93.87,55.67a.85.85,0,0,1,.26.7.71.71,0,0,1-.35.71,1.59,1.59,0,0,1-1,.26,1.46,1.46,0,0,1-1-.26,1.08,1.08,0,0,1-.35-.71l.44-.08c.09.44.35.61.88.61s.87-.17.87-.53a.46.46,0,0,0-.17-.35.78.78,0,0,0-.53-.17l-.35-.09a1.76,1.76,0,0,1-.79-.35.85.85,0,0,1-.26-.7.71.71,0,0,1,.35-.71,1.41,1.41,0,0,1,1-.26,1.18,1.18,0,0,1,.88.26,1.08,1.08,0,0,1,.35.71l-.44.08a.69.69,0,0,0-.79-.61c-.52,0-.79.17-.79.53a.46.46,0,0,0,.18.35.73.73,0,0,0,.53.17l.35.09A1.12,1.12,0,0,1,93.87,55.67Z"/><path class="cls-1" d="M97.12,55.5V56a.71.71,0,0,0,.17.44.92.92,0,0,0,.79.44,1.47,1.47,0,0,0,.71-.17c.17-.09.17-.27.26-.53h.44a1.63,1.63,0,0,1-.35.88,1.46,1.46,0,0,1-1,.26,1.35,1.35,0,0,1-1.31-.79,3,3,0,0,1-.18-1,1.92,1.92,0,0,1,.09-.79c.09-.17.09-.44.17-.61a1.33,1.33,0,0,1,1.23-.62,1.41,1.41,0,0,1,1,.27,1.13,1.13,0,0,1,.35.79l-.44.09a.54.54,0,0,0-.26-.53,1.35,1.35,0,0,0-.71-.18.94.94,0,0,0-.79.44A3.6,3.6,0,0,0,97.12,55.5Z"/><path class="cls-1" d="M101,57.25h-.52V52.42l.52-.08Z"/><path class="cls-1" d="M102.56,53a.32.32,0,0,1-.35-.35c0-.27.09-.35.35-.35s.35.08.35.35S102.83,53,102.56,53Zm-.26.61h.53v3.6h-.53Z"/><path class="cls-1" d="M104.67,54a2,2,0,0,1,1.32-.44,1.16,1.16,0,0,1,.88.27,1.18,1.18,0,0,1,.26.88v2.63h-.53V54.79a.75.75,0,0,0-.17-.52.68.68,0,0,0-.44-.18,2.09,2.09,0,0,0-1.14.44v2.81h-.62v-3.6h.35Z"/><path class="cls-1" d="M108.62,53a.32.32,0,0,1-.35-.35c0-.27.09-.35.35-.35s.35.08.35.35A.32.32,0,0,1,108.62,53Zm-.26.61h.53v3.6h-.53Z"/><path class="cls-1" d="M110.47,55.5V56a.66.66,0,0,0,.17.44.92.92,0,0,0,.79.44,1.42,1.42,0,0,0,.7-.17c.18-.09.18-.27.27-.53h.44a1.63,1.63,0,0,1-.35.88,1.46,1.46,0,0,1-1,.26,1.37,1.37,0,0,1-1.32-.79,3.06,3.06,0,0,1-.17-1,2.14,2.14,0,0,1,.08-.79,1.58,1.58,0,0,1,.18-.61,1.33,1.33,0,0,1,1.23-.62,1.41,1.41,0,0,1,1,.27,1.13,1.13,0,0,1,.35.79l-.44.09a.53.53,0,0,0-.27-.53,1.31,1.31,0,0,0-.7-.18.94.94,0,0,0-.79.44A2,2,0,0,0,110.47,55.5Z"/><path class="cls-1" d="M114,53a.32.32,0,0,1-.35-.35c0-.27.09-.35.35-.35s.35.08.35.35S114.24,53,114,53Zm-.26.61h.52v3.6h-.52Z"/><path class="cls-1" d="M117.67,53.83c.26.17.35.52.35,1.05v2.46h-.35l-.18-.53a1.84,1.84,0,0,1-1.32.62.86.86,0,0,1-.7-.27.87.87,0,0,1-.26-.7,1,1,0,0,1,.26-.7,2,2,0,0,1,1-.35l1-.18v-.35a.81.81,0,0,0-.17-.61.93.93,0,0,0-.53-.18.77.77,0,0,0-.79.7l-.44-.08a1,1,0,0,1,.44-.71,1.36,1.36,0,0,1,.88-.26C117.14,53.74,117.4,53.65,117.67,53.83Zm-1.32,3.07a1.49,1.49,0,0,0,1.14-.61v-.71l-.88.18A2.48,2.48,0,0,0,116,56a.68.68,0,0,0-.18.44c0,.18,0,.27.09.35A3.65,3.65,0,0,0,116.35,56.9Z"/><path class="cls-1" d="M119.77,54a2,2,0,0,1,1.32-.44,1.16,1.16,0,0,1,.88.27,1.14,1.14,0,0,1,.26.88v2.63h-.52V54.79a.7.7,0,0,0-.18-.52.66.66,0,0,0-.44-.18,2.09,2.09,0,0,0-1.14.44v2.81h-.61v-3.6h.35Z"/><path class="cls-1" d="M123.81,57.08c0,.08,0,.08-.08.17s-.09.09-.27.09a.31.31,0,0,1-.26-.09c-.09-.09-.09-.09-.09-.17v-.44c0-.09.09-.18.26-.18s.27,0,.27.09.09.18.09.26A1,1,0,0,0,123.81,57.08Z"/></g></g></svg>