<?xml version="1.0" encoding="utf-8"?>
<!-- Generator: Adobe Illustrator 21.0.0, SVG Export Plug-In . SVG Version: 6.00 Build 0)  -->
<svg version="1.1" id="Layer_1" xmlns="http://www.w3.org/2000/svg" xmlns:xlink="http://www.w3.org/1999/xlink" x="0px" y="0px"
	 width="90px" height="90px" viewBox="0 0 90 90" style="enable-background:new 0 0 90 90;" xml:space="preserve">
<style type="text/css">
	.st0{fill:#FFFFFF;}
</style>
<g transform="translate(0,-952.36218)">
	<path class="st0" d="M45,953.4c-24.3,0-44,19.7-44,44c0,24.3,19.7,44,44,44s44-19.7,44-44S69.3,953.4,45,953.4z M45,957.4
		c22.1,0,40,17.9,40,40c0,22.1-17.9,40-40,40s-40-17.9-40-40S22.9,957.4,45,957.4z M30,976.3c-1.1,0-2,0.9-2,2c0,0,0,0,0,0.1v38
		c0,1.1,0.9,2,2,2c0.4,0,0.7-0.1,1-0.3l34-19c0.7-0.4,1.1-1.2,1-2c-0.1-0.6-0.5-1.2-1-1.5l-34-19C30.7,976.4,30.4,976.3,30,976.3z
		 M32,981.8l27.9,15.6L32,1013V981.8z"/>
</g>
</svg>
