<svg xmlns="http://www.w3.org/2000/svg" viewBox="0 0 130.13 63.12"><defs><style>.cls-1,.cls-2{fill:#fff;}.cls-2{font-size:7.48px;font-family:Lato-Regular, Lato;}.cls-3{letter-spacing:-0.11em;}.cls-4{letter-spacing:0em;}.cls-5{letter-spacing:-0.02em;}</style></defs><title>Asset 4</title><g id="Layer_2" data-name="Layer 2"><g id="Layer_1-2" data-name="Layer 1"><path class="cls-1" d="M16.44,30.73a6.72,6.72,0,0,0-4.56,1.44,6.82,6.82,0,0,0-4.59-1.44A7.87,7.87,0,0,0,2.67,31.9,4.26,4.26,0,0,0,.83,35.71V49.77h3V36.22c0-.49-.26-2.76,3.13-2.76s3.39,2,3.39,2.5V49.77h3V36.28c0-.5,0-2.82,3.39-2.82s3.39,2.28,3.39,2.76V49.77h3V35.71C23.19,32.41,20.92,30.73,16.44,30.73Z"/><path class="cls-1" d="M110.21,31.89a10.58,10.58,0,0,0-9.61,0,4.21,4.21,0,0,0-1.89,3.83V49.77h3V36c0-.49,0-2.5,3.69-2.5s3.69,2,3.69,2.5V49.77h3V35.71A4.21,4.21,0,0,0,110.21,31.89Z"/><path class="cls-1" d="M50.4,8.17V21.36c0,.49,0,3-3.69,3S43,21.89,43,21.4V8.17H33.92V4.1h-3V8.17H29V10.9h1.94V22.3h0c0,.11,0,.2,0,.26a5.33,5.33,0,0,0,2.52,4.35l2.15-2.24A2.67,2.67,0,0,1,34.05,23a6.53,6.53,0,0,1-.12-1.6c0-.23,0-10.55,0-10.55H40V22.1a4.21,4.21,0,0,0,1.89,3.83,8.87,8.87,0,0,0,4.8,1.16,9,9,0,0,0,4.81-1.16,4.21,4.21,0,0,0,1.91-3.83V8.17Z"/><path class="cls-1" d="M68.14,46.06a6.6,6.6,0,0,1-.13-1.6c0-.16,0-8.73,0-13.55H65v14.4h0c0,.11,0,.2,0,.26a5.34,5.34,0,0,0,2.52,4.34l2.15-2.24A2.67,2.67,0,0,1,68.14,46.06Z"/><path class="cls-1" d="M93.83,46.06a6.6,6.6,0,0,1-.13-1.6V30.91h-3v14.4h0c0,.11,0,.2,0,.26a5.33,5.33,0,0,0,2.51,4.34l2.15-2.24A2.67,2.67,0,0,1,93.83,46.06Z"/><path class="cls-1" d="M22.47,8.17V9a1,1,0,0,0,0,.15V21.3c0,.49,0,3.07-3.69,3.07S15.1,21.78,15.1,21.3V9.18a1,1,0,0,0,0-.15V8.17H5.51V5.33C5.51,4.84,5.5,3,8.88,3h2V0h-2c-4.24,0-6.4,1.68-6.4,5V8.17H0v3H2.49V24.25a4.66,4.66,0,0,1-.09,1.15,2.65,2.65,0,0,1-1.56,1.7L2.95,29.3l0,0A5.55,5.55,0,0,0,5.51,25c0-.12,0-2.43,0-2.43V11.18h6.56V22.1A4.21,4.21,0,0,0,14,25.93a8.88,8.88,0,0,0,4.8,1.16,9,9,0,0,0,4.81-1.16,4.21,4.21,0,0,0,1.91-3.83V8.17Z"/><path class="cls-1" d="M38.71,45c0,1.11-1.08,2.25-4,2.2-3.49-.06-3.49-2-3.49-2.49V42.26h0V38.78h0V35.86c0-.49,0-2.36,3.76-2.41s3.73,1.56,3.76,2.23v.85a2.57,2.57,0,0,1-.4,1.66c-.18.2-.67.47-2,.6l-4.28.43V42l4.55-.44a6.87,6.87,0,0,0,4-1.29c.77-.7,1.14-1.91,1.14-3.69v-.88A4.44,4.44,0,0,0,40,31.8a8.17,8.17,0,0,0-4.68-1.07,9.13,9.13,0,0,0-5.14,1,4.27,4.27,0,0,0-2,3.94V45a4.19,4.19,0,0,0,1.94,3.81,9,9,0,0,0,4.81,1.17c4.45,0,6.74-1.53,6.8-4.56h0V43.85h-3Z"/><path class="cls-1" d="M127.11,45c0,1.11-1.08,2.25-4,2.2-3.49-.06-3.49-2-3.49-2.49V42.26h0V38.78h0V35.86c0-.49,0-2.36,3.76-2.41s3.73,1.56,3.76,2.23v.85a2.57,2.57,0,0,1-.4,1.66c-.18.2-.67.47-2,.6l-4.28.43V42l4.55-.44a6.87,6.87,0,0,0,4-1.29c.77-.7,1.14-1.91,1.14-3.69v-.88a4.44,4.44,0,0,0-1.74-3.85,8.17,8.17,0,0,0-4.68-1.07,9.13,9.13,0,0,0-5.14,1,4.27,4.27,0,0,0-2,3.94V45a4.19,4.19,0,0,0,1.94,3.81,9,9,0,0,0,4.81,1.17c4.45,0,6.74-1.53,6.8-4.56h0V43.85h-3Z"/><path class="cls-1" d="M83.81,43.85l0,1.17c0,1.11-1.08,2.25-4,2.2-3.49-.06-3.5-2-3.5-2.49V42.26h0V35.66c0-1.11,1.08-2.25,4-2.2,3.49.06,3.5,2,3.5,2.49v1.47h3V35.71a4.19,4.19,0,0,0-1.94-3.81,9,9,0,0,0-4.81-1.17c-4.45,0-6.74,1.53-6.8,4.56h0V45a4.19,4.19,0,0,0,1.94,3.81A9,9,0,0,0,80,49.94c4.45,0,6.74-1.53,6.8-4.56h0V43.24h-3Z"/><path class="cls-1" d="M78.27,15.35c-.18.2-.67.47-2,.6L72,16.38v2.73l4.55-.44a6.87,6.87,0,0,0,4-1.29c.77-.7,1.14-1.91,1.14-3.69V12.8A4.44,4.44,0,0,0,80,9a7.81,7.81,0,0,0-4.33-1.07l-3,3.11a6.37,6.37,0,0,1,2.33-.39c3.68,0,3.73,1.56,3.76,2.23v.85A2.57,2.57,0,0,1,78.27,15.35Z"/><path class="cls-1" d="M68.14,22.11a4.19,4.19,0,0,0,1.94,3.81,9,9,0,0,0,4.81,1.17c4.45,0,6.74-1.53,6.8-4.56h0V21h-3v1.17c0,1.11-1.08,2.25-4,2.2-3.49-.06-3.49-2-3.49-2.49V19.41h0V15.93h0V13a2.31,2.31,0,0,1,.07-.63l-3.09,3.17Z"/><path class="cls-1" d="M70.13,8.92a4.27,4.27,0,0,0-2,3.94v2l6.86-7h-.18A8.54,8.54,0,0,0,70.13,8.92Z"/><path class="cls-1" d="M60.92,13.35a2.23,2.23,0,0,1,2.4-2.5h2.16l.59-.57L68.24,8h-5a5.59,5.59,0,0,0-3.79,1.29,4.72,4.72,0,0,0-1.52,3.81V25.35l3-3.09Z"/><path class="cls-1" d="M56.54,44.56c0,.48,0,2.51-3.69,2.51S49.17,45,49.17,44.51v-8c0-.49,0-2.59,3.69-2.59h2.8V32.52s0-.08,0-.12,0-.06,0-.09V30.88H52.54A7.79,7.79,0,0,0,48,32.19,4.47,4.47,0,0,0,46.15,36v8.8a4.21,4.21,0,0,0,1.91,3.83,9,9,0,0,0,4.81,1.16,8.89,8.89,0,0,0,4.8-1.16,4.22,4.22,0,0,0,1.89-3.83V24.32l-3,3.09Z"/><text class="cls-2" transform="translate(0 61.75)"><tspan class="cls-3">T</tspan><tspan class="cls-4" x="3.63" y="0">omorrow’s science for tod</tspan><tspan class="cls-5" x="88.15" y="0">a</tspan><tspan x="91.82" y="0">y’s clinician </tspan></text></g></g></svg>