<svg xmlns="http://www.w3.org/2000/svg" viewBox="0 0 20 20">
  <defs>
    <style>
      .cls-1 {
        fill: #fff;
      }
    </style>
  </defs>
  <g id="if_pinterest_324891" transform="translate(0 -552.362)">
    <path id="rect2995" class="cls-1" d="M2,0A2,2,0,0,0,0,2V18a2,2,0,0,0,2,2H18a2,2,0,0,0,2-2V2a2,2,0,0,0-2-2Zm8.383,2.155a5.441,5.441,0,0,1,5.764,5.216c0,3.571-1.986,6.239-4.912,6.239A2.608,2.608,0,0,1,9.01,12.476s-.528,2.1-.64,2.5a9.72,9.72,0,0,1-1.644,2.98.122.122,0,0,1-.217-.053,10.221,10.221,0,0,1,.027-3.46l1.171-4.96a3.511,3.511,0,0,1-.29-1.441c0-1.349.781-2.356,1.755-2.356A1.22,1.22,0,0,1,10.4,7.054a19.544,19.544,0,0,1-.8,3.231,1.41,1.41,0,0,0,1.437,1.754c1.724,0,2.885-2.216,2.885-4.841,0-1.995-1.343-3.489-3.787-3.489A4.312,4.312,0,0,0,5.65,8.069a2.627,2.627,0,0,0,.6,1.786.442.442,0,0,1,.131.508c-.044.168-.144.571-.186.73a.313.313,0,0,1-.456.227A3.505,3.505,0,0,1,3.876,7.843C3.876,5.256,6.057,2.155,10.383,2.155Z" transform="translate(0 552.362)"/>
  </g>
</svg>
