<svg xmlns="http://www.w3.org/2000/svg" viewBox="0 0 20 19.999">
  <defs>
    <style>
      .cls-1 {
        fill: #fff;
      }
    </style>
  </defs>
  <g id="noun_Camera_40714" transform="translate(-5.665 -5.667)">
    <g id="Group_149" data-name="Group 149" transform="translate(5.665 5.667)">
      <path id="Path_9" data-name="Path 9" class="cls-1" d="M9.952,12.542a6.391,6.391,0,0,1,11.323,0h4.39V9.1a3.437,3.437,0,0,0-3.437-3.437H10.978v4.375h-.469V5.667h-.156v4.375H9.884V5.667H9.728v4.375H9.259V5.667H9.1v4.375H8.634V5.7A3.437,3.437,0,0,0,5.665,9.1v3.437ZM20.509,7.81a.737.737,0,0,1,.737-.737H22.9a.737.737,0,0,1,.737.737v1.65a.737.737,0,0,1-.737.737h-1.65a.737.737,0,0,1-.737-.737Z" transform="translate(-5.665 -5.667)"/>
      <path id="Path_10" data-name="Path 10" class="cls-1" d="M21.677,36.4a6.395,6.395,0,1,1-12.125,0H5.667v8.75A3.437,3.437,0,0,0,9.1,48.582H22.229a3.437,3.437,0,0,0,3.437-3.437V36.4Z" transform="translate(-5.666 -28.583)"/>
      <circle id="Ellipse_13" data-name="Ellipse 13" class="cls-1" cx="4.261" cy="4.261" r="4.261" transform="translate(5.687 5.582)"/>
    </g>
  </g>
</svg>
